<?xml version="1.0" encoding="UTF-8"?> <svg xmlns="http://www.w3.org/2000/svg" width="58" height="58" viewBox="0 0 58 58" fill="none"><path d="M38.6667 19.3333H24.1667C22.8848 19.3333 21.6554 19.8425 20.749 20.7489C19.8426 21.6553 19.3333 22.8847 19.3333 24.1666C19.3333 25.4485 19.8426 26.6778 20.749 27.5843C21.6554 28.4907 22.8848 28.9999 24.1667 28.9999H33.8333C35.1152 28.9999 36.3446 29.5091 37.251 30.4156C38.1574 31.322 38.6667 32.5514 38.6667 33.8333C38.6667 35.1151 38.1574 36.3445 37.251 37.2509C36.3446 38.1574 35.1152 38.6666 33.8333 38.6666H19.3333M29 43.4999V14.4999M53.1667 28.9999C53.1667 42.3468 42.3469 53.1666 29 53.1666C15.6531 53.1666 4.83334 42.3468 4.83334 28.9999C4.83334 15.653 15.6531 4.83325 29 4.83325C42.3469 4.83325 53.1667 15.653 53.1667 28.9999Z" stroke="#D81259" stroke-width="2" stroke-linecap="round" stroke-linejoin="round"></path></svg> 