<?xml version="1.0" encoding="UTF-8"?> <svg xmlns="http://www.w3.org/2000/svg" width="32" height="32" viewBox="0 0 32 32" fill="none"><path fill-rule="evenodd" clip-rule="evenodd" d="M25.1029 10.0911C22.0037 8.28976 18.9029 6.49109 15.8024 4.69243L13.6045 5.96798C16.7047 7.76797 19.8052 9.56795 22.9049 11.3679C20.5374 12.7412 18.1694 14.1154 15.8027 15.4897C11.8851 13.2154 7.96716 10.9422 4.0498 8.66796L6.50197 7.24485C9.6022 9.04377 12.7027 10.8435 15.8024 12.6435L18.0003 11.3666C14.9001 9.56795 11.8004 7.76797 8.69989 5.96798C11.0701 4.59105 13.4405 3.21545 15.8109 1.83984C19.7259 4.11677 23.6411 6.38997 27.555 8.66796C26.7374 9.14224 25.9205 9.61679 25.1029 10.0911Z" fill="#8C1C5F"></path><path fill-rule="evenodd" clip-rule="evenodd" d="M15.3569 16.5865C15.3587 17.5249 15.3598 18.4624 15.3611 19.4008L6.03519 14.0165C6.03042 16.6523 6.02723 19.288 6.02113 21.9235C8.30398 23.2413 10.5866 24.5593 12.8689 25.877L12.8737 23.3397C11.3304 22.4352 9.77262 21.549 8.2233 20.6541L8.22808 17.8227C10.607 19.1965 12.992 20.5604 15.3656 21.944C15.3712 24.683 15.3746 27.4219 15.3789 30.1612C11.4406 27.8893 7.50384 25.6121 3.56445 23.34L3.58701 9.75781L15.3569 16.5865Z" fill="#3686C1"></path><path fill-rule="evenodd" clip-rule="evenodd" d="M25.9841 21.905L25.9804 19.373C22.8871 21.1589 19.7935 22.9446 16.7001 24.7318C16.6951 22.0202 16.6951 19.3098 16.6855 16.5984C20.5944 14.3287 24.5043 12.0597 28.4143 9.79102C28.4153 10.7276 28.4167 11.6643 28.4193 12.6009C25.3257 14.3881 22.231 16.1738 19.1374 17.9597L19.1422 20.493C22.2358 18.706 25.3292 16.9201 28.4228 15.1342C28.4275 17.8628 28.4326 20.5899 28.436 23.3185C24.5274 25.5763 20.6172 27.8328 16.7086 30.0909L16.71 27.2603C19.8012 25.4744 22.8945 23.6922 25.9844 21.9052L25.9841 21.905Z" fill="#FFB03F"></path></svg> 