<?xml version="1.0" encoding="UTF-8"?> <svg xmlns="http://www.w3.org/2000/svg" width="2209" height="599" viewBox="0 0 2209 599" fill="none"><path fill-rule="evenodd" clip-rule="evenodd" d="M455.517 174.51C389.971 136.413 324.391 98.372 258.817 60.3311L212.331 87.3083C277.9 125.377 343.474 163.446 409.032 201.515C358.96 230.558 308.877 259.623 258.822 288.689C175.966 240.589 93.1044 192.512 10.2539 144.412L62.1161 114.314C127.685 152.36 193.259 190.423 258.817 228.492L305.302 201.487C239.733 163.446 174.176 125.377 108.601 87.3083C158.729 58.1868 208.863 29.0934 258.996 0C341.796 48.156 424.602 96.2333 507.379 144.412C490.086 154.443 472.81 164.479 455.517 174.51Z" fill="#8C1C5F"></path><path fill-rule="evenodd" clip-rule="evenodd" d="M249.405 311.9C249.444 331.748 249.466 351.574 249.494 371.422L52.2551 257.547C52.1541 313.292 52.0867 369.037 51.9577 424.776C100.239 452.646 148.515 480.521 196.785 508.391L196.886 454.728C164.247 435.598 131.3 416.856 98.5326 397.928L98.6337 338.046C148.947 367.1 199.389 395.947 249.59 425.208C249.708 483.137 249.781 541.066 249.87 599C166.577 550.951 83.3163 502.789 0 454.734L0.477088 167.477L249.405 311.9Z" fill="#3686C1"></path><path fill-rule="evenodd" clip-rule="evenodd" d="M474.163 424.366L474.085 370.816C408.662 408.587 343.233 446.353 277.811 484.153C277.704 426.802 277.704 369.48 277.502 312.135C360.173 264.131 442.866 216.143 525.559 168.161C525.582 187.97 525.61 207.779 525.666 227.588C460.238 265.388 394.787 303.154 329.359 340.925L329.46 394.504C394.888 356.71 460.311 318.938 525.739 281.167C525.84 338.877 525.947 396.553 526.02 454.262C443.354 502.014 360.656 549.738 277.99 597.495L278.018 537.63C343.396 499.859 408.819 462.166 474.169 424.372L474.163 424.366Z" fill="#FFB03F"></path><path d="M692.389 278.574C685.648 277.328 682.701 273.264 683.24 266.747L683.639 262.155C684.178 255.549 688.062 252.063 695.111 252.287C716.923 252.736 727.536 252.961 736.186 252.961C754.147 252.961 758.979 248.42 758.979 237.996C758.979 228.667 754.68 224.317 744.319 220.898L713.291 209.891C689.65 201.403 681.04 185.731 681.04 164.558C681.04 131.771 697.418 121.718 737.409 121.718C749.847 121.718 764.878 122.481 779.32 125.434C785.612 126.77 788.385 131.053 787.762 137.485L787.447 140.977C786.909 147.584 783.114 151.069 776.508 150.845C764.71 150.486 750.167 150.345 737.651 150.345C721.087 150.345 715.211 152.697 715.211 164.53C715.211 173.584 719.768 178.294 731.421 182.06L760.714 192.097C785.578 200.859 793.459 216.845 793.459 237.738C793.459 270.216 778.282 282.374 736.034 282.374C727.553 282.374 711.534 281.925 692.383 278.568L692.389 278.574Z" fill="#8C1C5F"></path><path d="M815.22 268.796L819.946 142.374C820.344 130.755 826.737 124.586 838.356 124.586H860.779C871.589 124.586 878.206 129.857 880.536 140.443L898.71 212.921C900.242 219.208 901.101 225.085 902.1 231.232C902.459 233.78 903.267 234.678 904.216 234.678C905.165 234.678 905.973 233.87 906.338 231.232C907.337 225.08 908.28 219.068 909.818 212.781L927.554 140.528C929.799 129.851 936.411 124.586 947.311 124.586H969.981C981.6 124.586 987.993 130.755 988.531 142.374L993.527 268.796C993.751 275.711 990.182 279.506 983.267 279.506H971.957C965.266 279.506 961.607 275.936 961.293 269.245L956.791 155.184C956.567 152.411 955.893 151.378 954.72 151.378C953.328 151.378 952.43 152.186 951.891 154.735L929.799 242.413C927.374 253.135 920.763 258.321 909.818 258.321H898.165C887.355 258.321 880.738 253.006 878.319 242.413L856.227 154.735C855.688 152.186 854.88 151.378 853.622 151.378C852.365 151.378 851.692 152.411 851.467 155.184L847.504 269.245C847.28 275.936 843.62 279.506 836.93 279.506H825.62C818.705 279.506 814.995 275.711 815.22 268.796Z" fill="#8C1C5F"></path><path d="M1019.2 279.511C1011.52 279.511 1008.18 275.004 1010.41 267.634L1049.88 138.546C1052.74 129.183 1058.81 124.586 1068.76 124.586H1090.29C1100.24 124.586 1106.31 129.183 1109.17 138.546L1148.78 267.634C1151.01 274.998 1147.67 279.511 1139.99 279.511H1126.75C1120.46 279.511 1116.67 276.615 1115.05 270.547L1106.99 242.077C1106.46 239.882 1105.02 238.81 1102.87 238.81H1056.31C1054.16 238.81 1052.72 239.882 1052.19 242.077L1044.13 270.547C1042.51 276.615 1038.72 279.511 1032.43 279.511H1019.19H1019.2ZM1094.73 212.338C1097.46 212.338 1098.67 210.676 1098 208.083L1085.87 165.012C1084.98 161.431 1083.94 157.536 1083.22 153.87C1082.77 151.501 1081.65 150.424 1079.72 150.424H1079.49C1077.56 150.424 1076.35 151.586 1075.85 153.87C1075.04 157.541 1074.23 161.297 1073.33 165.012L1061.21 208.083C1060.53 210.676 1061.74 212.338 1064.47 212.338H1094.73H1094.73Z" fill="#8C1C5F"></path><path d="M1168.2 269.02V138.507C1168.2 129.301 1172.91 124.002 1182.8 123.464C1195.26 122.7 1209.04 122.476 1223.99 122.476C1263.82 122.476 1285.9 128.689 1285.9 167.988C1285.9 195.717 1272.04 202.391 1259.19 206.102C1256.82 206.91 1256.46 207.887 1258.97 208.835C1266.59 211.765 1274.23 215.65 1278.33 231.226L1288.6 267.864C1290.52 275.094 1287.04 279.512 1279.5 279.512H1265.05C1258.67 279.512 1254.88 276.48 1253.4 270.407L1243.89 232.113C1241.14 222.346 1236.49 219.096 1227.36 219.096H1205.72C1203.22 219.096 1201.92 220.393 1201.92 222.902V269.02C1201.92 275.852 1198.26 279.506 1191.43 279.506H1178.68C1171.85 279.506 1168.19 275.846 1168.19 269.02H1168.2ZM1227.93 192.686C1245.96 192.551 1251.46 187.763 1251.46 170.446C1251.46 153.129 1245.82 148.891 1225.88 148.891C1219.78 148.891 1213.74 149.026 1207.65 149.026C1203.77 149.026 1201.92 150.598 1201.92 154.202V188.875C1201.92 191.384 1203.22 192.68 1205.73 192.68H1227.93V192.686Z" fill="#8C1C5F"></path><path d="M1347.14 269.02V156.144C1347.14 153.634 1345.85 152.338 1343.34 152.338H1311.43C1304.6 152.338 1300.94 148.678 1300.94 141.852V135.077C1300.94 128.246 1304.6 124.586 1311.43 124.586H1417.35C1424.18 124.586 1427.83 128.246 1427.83 135.077V141.852C1427.83 148.684 1424.17 152.338 1417.35 152.338H1385.3C1382.79 152.338 1381.49 153.634 1381.49 156.144V269.02C1381.49 275.851 1377.83 279.506 1371.01 279.506H1357.63C1350.8 279.506 1347.14 275.846 1347.14 269.02Z" fill="#8C1C5F"></path><path d="M1539.51 281.964C1504.77 281.964 1490.15 257.945 1490.15 201.633C1490.15 140.353 1508.45 121.577 1559.56 121.577C1573.55 121.577 1586.04 122.475 1597.71 124.945C1604 126.191 1606.86 130.39 1606.1 136.907L1605.48 142.217C1604.72 148.824 1600.92 152.169 1594.32 151.945C1582.54 151.395 1570.86 151.17 1560.61 151.17C1534.7 151.17 1526.15 157.71 1526.15 202.728C1526.15 240.763 1532.28 252.472 1551.52 252.472C1561.03 252.472 1568.99 250.631 1576.36 248.24C1578.37 247.656 1579.45 246.219 1579.45 243.985V200.724C1579.45 193.892 1583.11 190.233 1589.94 190.233H1601.98C1608.81 190.233 1612.46 193.892 1612.46 200.724V269.02C1612.46 275.851 1608.8 279.511 1601.98 279.511H1596.68C1590.73 279.511 1587.03 276.918 1585.43 271.411L1585.08 270.087C1584.63 267.881 1582.75 267.645 1580.47 269.43C1571.84 275.616 1557.77 281.97 1539.52 281.97L1539.51 281.964Z" fill="#3686C1"></path><path d="M1639.99 269.02V138.507C1639.99 129.301 1644.71 124.002 1654.6 123.464C1667.05 122.7 1680.83 122.476 1695.78 122.476C1735.61 122.476 1757.69 128.689 1757.69 167.988C1757.69 195.717 1743.84 202.391 1730.99 206.102C1728.62 206.91 1728.25 207.887 1730.76 208.835C1738.38 211.765 1746.02 215.65 1750.13 231.226L1760.4 267.864C1762.32 275.094 1758.84 279.512 1751.29 279.512H1736.85C1730.46 279.512 1726.67 276.48 1725.2 270.407L1715.69 232.113C1712.93 222.346 1708.28 219.096 1699.16 219.096H1677.52C1675.01 219.096 1673.71 220.393 1673.71 222.902V269.02C1673.71 275.852 1670.05 279.506 1663.22 279.506H1650.48C1643.65 279.506 1639.99 275.846 1639.99 269.02H1639.99ZM1699.73 192.686C1717.76 192.551 1723.26 187.763 1723.26 170.446C1723.26 153.129 1717.62 148.891 1697.68 148.891C1691.58 148.891 1685.54 149.026 1679.45 149.026C1675.57 149.026 1673.72 150.598 1673.72 154.202V188.875C1673.72 191.384 1675.02 192.68 1677.53 192.68H1699.73V192.686Z" fill="#3686C1"></path><path d="M1782.64 279.511C1774.96 279.511 1771.61 275.004 1773.85 267.634L1813.32 138.546C1816.18 129.183 1822.24 124.586 1832.2 124.586H1853.73C1863.68 124.586 1869.75 129.183 1872.6 138.546L1912.21 267.634C1914.45 274.998 1911.1 279.511 1903.42 279.511H1890.19C1883.9 279.511 1880.1 276.615 1878.49 270.547L1870.43 242.077C1869.89 239.882 1868.46 238.81 1866.31 238.81H1819.74C1817.6 238.81 1816.16 239.882 1815.62 242.077L1807.56 270.547C1805.95 276.615 1802.16 279.511 1795.86 279.511H1782.62H1782.64ZM1858.16 212.338C1860.89 212.338 1862.1 210.676 1861.43 208.083L1849.3 165.012C1848.41 161.431 1847.37 157.536 1846.65 153.87C1846.2 151.501 1845.08 150.424 1843.15 150.424H1842.92C1840.99 150.424 1839.78 151.586 1839.28 153.87C1838.47 157.541 1837.66 161.297 1836.76 165.012L1824.64 208.083C1823.96 210.676 1825.17 212.338 1827.9 212.338H1858.16H1858.16Z" fill="#3686C1"></path><path d="M1931.63 269.02V139.652C1931.63 129.817 1936.86 124.586 1946.7 124.586H1960.98C1969.48 124.586 1974.8 127.853 1978.77 135.33L2018.01 215.066C2020.8 220.651 2023.45 226.191 2025.88 231.95C2026.65 233.561 2027.27 234.235 2028.48 234.235C2029.68 234.235 2030.23 232.848 2030.14 230.878C2029.96 225.478 2029.87 219.944 2029.87 214.454L2029.92 135.077C2029.92 128.246 2033.58 124.586 2040.41 124.586H2051.94C2058.77 124.586 2062.43 128.246 2062.43 135.077V264.445C2062.43 274.28 2057.2 279.511 2047.36 279.511H2032.94C2024.44 279.511 2019.12 276.244 2015.15 268.768L1975.1 187.797C1972.5 182.61 1970.15 177.249 1967.9 171.799C1967.22 170.188 1966.68 169.43 1965.39 169.43C1964.31 169.43 1963.82 170.553 1963.82 172.439C1963.99 178.108 1964.08 184.008 1964.08 189.593L1964.36 269.026C1964.36 275.857 1960.7 279.511 1953.86 279.511H1942.12C1935.29 279.511 1931.63 275.851 1931.63 269.026L1931.63 269.02Z" fill="#3686C1"></path><path d="M2128.31 269.02V156.144C2128.31 153.634 2127.01 152.338 2124.51 152.338H2092.6C2085.77 152.338 2082.11 148.678 2082.11 141.852V135.077C2082.11 128.246 2085.77 124.586 2092.6 124.586H2198.52C2205.35 124.586 2209 128.246 2209 135.077V141.852C2209 148.684 2205.34 152.338 2198.52 152.338H2166.47C2163.96 152.338 2162.66 153.634 2162.66 156.144V269.02C2162.66 275.851 2159 279.506 2152.18 279.506H2138.8C2131.97 279.506 2128.31 275.846 2128.31 269.02Z" fill="#3686C1"></path><path d="M692.389 493C685.648 491.754 682.701 487.69 683.24 481.173L683.639 476.581C684.178 469.974 688.062 466.489 695.111 466.713C716.923 467.162 727.536 467.387 736.186 467.387C754.147 467.387 758.979 462.846 758.979 452.422C758.979 443.093 754.68 438.742 744.319 435.324L713.291 424.316C689.65 415.829 681.04 400.157 681.04 378.984C681.04 346.197 697.418 336.144 737.409 336.144C749.847 336.144 764.878 336.907 779.32 339.86C785.612 341.195 788.385 345.478 787.762 351.911L787.447 355.403C786.909 362.009 783.114 365.495 776.508 365.271C764.71 364.911 750.167 364.771 737.651 364.771C721.087 364.771 715.211 367.123 715.211 378.956C715.211 388.01 719.768 392.719 731.421 396.486L760.714 406.522C785.578 415.285 793.459 431.271 793.459 452.164C793.459 484.642 778.282 496.8 736.034 496.8C727.553 496.8 711.534 496.351 692.383 492.994L692.389 493Z" fill="#FFB03F"></path><path d="M854.531 416.475C854.531 354.353 871.976 336.009 920.852 336.009C969.728 336.009 987.257 354.353 987.257 416.475C987.257 478.596 969.812 496.94 920.852 496.94C871.892 496.94 854.531 478.596 854.531 416.475ZM951.172 416.475C951.172 375.487 944.168 363.671 920.852 363.671C897.537 363.671 890.532 375.487 890.532 416.475C890.532 457.462 897.537 469.278 920.852 469.278C944.168 469.278 951.172 457.462 951.172 416.475Z" fill="#FFB03F"></path><path d="M1054.79 461.504V349.509C1054.79 342.677 1058.45 339.018 1065.28 339.018H1078.52C1085.35 339.018 1089 342.677 1089 349.509V454.633C1089 462.767 1092.46 466.135 1101.03 466.135H1144.17C1150.78 466.135 1154.57 469.705 1154.97 476.312L1155.29 481.931C1155.69 488.689 1152.35 493.926 1145.73 493.943H1090.24C1065.33 493.943 1054.79 480.539 1054.79 461.51V461.504Z" fill="#FFB03F"></path><path d="M1276.7 496.94C1230 496.94 1213.05 479.477 1213.05 432.27V349.503C1213.05 342.672 1216.71 339.012 1223.54 339.012H1236.78C1243.61 339.012 1247.26 342.672 1247.26 349.503V432.27C1247.26 460.752 1253.99 469.278 1275.05 469.278C1296.1 469.278 1302.6 460.752 1302.6 432.27V349.503C1302.6 342.672 1306.26 339.012 1313.09 339.012H1326.46C1333.29 339.012 1336.95 342.672 1336.95 349.503V432.27C1336.95 479.477 1320.8 496.94 1276.69 496.94H1276.7Z" fill="#FFB03F"></path><path d="M1443.62 483.446V370.569C1443.62 368.06 1442.33 366.764 1439.82 366.764H1407.91C1401.08 366.764 1397.42 363.104 1397.42 356.278V349.503C1397.42 342.672 1401.08 339.012 1407.91 339.012H1513.83C1520.66 339.012 1524.31 342.672 1524.31 349.503V356.278C1524.31 363.109 1520.65 366.764 1513.83 366.764H1481.78C1479.27 366.764 1477.97 368.06 1477.97 370.569V483.446C1477.97 490.277 1474.31 493.931 1467.49 493.931H1454.11C1447.28 493.931 1443.62 490.272 1443.62 483.446Z" fill="#FFB03F"></path><path d="M1586.02 483.446V349.503C1586.02 342.672 1589.68 339.012 1596.52 339.012H1609.58C1616.41 339.012 1620.06 342.672 1620.06 349.503V483.446C1620.06 490.277 1616.4 493.931 1609.58 493.931H1596.52C1589.68 493.931 1586.02 490.272 1586.02 483.446Z" fill="#FFB03F"></path><path d="M1688.29 416.475C1688.29 354.353 1705.73 336.009 1754.61 336.009C1803.49 336.009 1821.02 354.353 1821.02 416.475C1821.02 478.596 1803.58 496.94 1754.61 496.94C1705.64 496.94 1688.29 478.596 1688.29 416.475ZM1784.93 416.475C1784.93 375.487 1777.93 363.671 1754.61 363.671C1731.29 363.671 1724.29 375.487 1724.29 416.475C1724.29 457.462 1731.29 469.278 1754.61 469.278C1777.93 469.278 1784.93 457.462 1784.93 416.475Z" fill="#FFB03F"></path><path d="M1888.99 483.446V354.078C1888.99 344.243 1894.22 339.012 1904.06 339.012H1918.34C1926.84 339.012 1932.16 342.279 1936.13 349.755L1975.37 429.492C1978.16 435.077 1980.81 440.617 1983.24 446.376C1984.01 447.987 1984.63 448.661 1985.84 448.661C1987.04 448.661 1987.59 447.274 1987.5 445.304C1987.32 439.904 1987.23 434.369 1987.23 428.88L1987.28 349.503C1987.28 342.672 1990.94 339.012 1997.77 339.012H2009.3C2016.13 339.012 2019.78 342.672 2019.78 349.503V478.871C2019.78 488.706 2014.55 493.937 2004.72 493.937H1990.29C1981.79 493.937 1976.47 490.67 1972.51 483.193L1932.46 402.222C1929.85 397.036 1927.51 391.675 1925.25 386.225C1924.58 384.614 1924.04 383.856 1922.74 383.856C1921.66 383.856 1921.17 384.979 1921.17 386.865C1921.34 392.534 1921.43 398.433 1921.43 404.019L1921.71 483.452C1921.71 490.283 1918.05 493.937 1911.22 493.937H1899.47C1892.64 493.937 1888.98 490.277 1888.98 483.452L1888.99 483.446Z" fill="#FFB03F"></path><path d="M2098.37 493C2091.63 491.754 2088.68 487.69 2089.22 481.173L2089.62 476.581C2090.16 469.974 2094.04 466.489 2101.09 466.713C2122.91 467.162 2133.52 467.387 2142.17 467.387C2160.12 467.387 2164.96 462.846 2164.96 452.422C2164.96 443.093 2160.66 438.742 2150.3 435.324L2119.27 424.316C2095.63 415.829 2087.02 400.157 2087.02 378.984C2087.02 346.197 2103.4 336.144 2143.39 336.144C2155.83 336.144 2170.86 336.907 2185.3 339.86C2191.59 341.195 2194.37 345.478 2193.74 351.911L2193.43 355.403C2192.89 362.009 2189.1 365.495 2182.49 365.271C2170.69 364.911 2156.15 364.771 2143.63 364.771C2127.07 364.771 2121.19 367.123 2121.19 378.956C2121.19 388.01 2125.75 392.719 2137.4 396.486L2166.7 406.522C2191.56 415.285 2199.44 431.271 2199.44 452.164C2199.44 484.642 2184.26 496.8 2142.02 496.8C2133.54 496.8 2117.52 496.351 2098.37 492.994L2098.37 493Z" fill="#FFB03F"></path></svg> 