<?xml version="1.0" encoding="UTF-8"?> <svg xmlns="http://www.w3.org/2000/svg" width="585" height="569" viewBox="0 0 585 569" fill="none"><path opacity="0.2" d="M583.611 0.280273H584.041V568.06H583.611V568.78L-57.4307 568.779V568.06H-58V0.280273H-57.4307V0H583.611V0.280273ZM-57 567.779H-33.5801V544.358H-57V567.779ZM-32.5801 567.779H-9.1582V544.358H-32.5801V567.779ZM-8.1582 567.779H16.2793V544.358H-8.1582V567.779ZM17.2793 567.779H40.6992V544.358H17.2793V567.779ZM41.6992 567.779H65.1211V544.358H41.6992V567.779ZM66.1211 567.779H89.541V544.358H66.1211V567.779ZM90.541 567.779H113.963V544.358H90.541V567.779ZM114.963 567.779H139.4V544.358H114.963V567.779ZM140.4 567.779H163.82V544.358H140.4V567.779ZM164.82 567.779H188.242V544.358H164.82V567.779ZM189.242 567.779H212.662V544.358H189.242V567.779ZM213.662 567.779H238.1V544.358H213.662V567.779ZM239.1 567.779H262.521V544.358H239.1V567.779ZM263.521 567.779H286.941V544.358H263.521V567.779ZM287.941 567.779H311.361V544.358H287.941V567.779ZM312.361 567.779H336.801V544.358H312.361V567.779ZM337.801 567.779H361.221V544.358H337.801V567.779ZM362.221 567.779H385.643V544.358H362.221V567.779ZM386.643 567.779H410.062V544.358H386.643V567.779ZM411.062 567.779H435.5V544.358H411.062V567.779ZM436.5 567.779H459.922V544.358H436.5V567.779ZM460.922 567.779H484.342V544.358H460.922V567.779ZM485.342 567.779H508.762V544.358H485.342V567.779ZM509.762 567.779H534.201V544.358H509.762V567.779ZM535.201 567.779H558.621V544.358H535.201V567.779ZM559.621 567.779H583.041L583.04 544.358H559.621V567.779ZM-57 543.358H-33.5801V518.921H-57V543.358ZM-32.5801 543.358H-9.1582V518.921H-32.5801V543.358ZM-8.1582 543.358H16.2793V518.921H-8.1582V543.358ZM17.2793 543.358H40.6992V518.921H17.2793V543.358ZM41.6992 543.358H65.1211V518.921H41.6992V543.358ZM66.1211 543.358H89.541V518.921H66.1211V543.358ZM90.541 543.358H113.963V518.921H90.541V543.358ZM114.963 543.358H139.4V518.921H114.963V543.358ZM140.4 543.358H163.82V518.921H140.4V543.358ZM164.82 543.358H188.242V518.921H164.82V543.358ZM189.242 543.358H212.662V518.921H189.242V543.358ZM213.662 543.358H238.1V518.921H213.662V543.358ZM239.1 543.358H262.521V518.921H239.1V543.358ZM263.521 543.358H286.941V518.921H263.521V543.358ZM287.941 543.358H311.361V518.921H287.941V543.358ZM312.361 543.358H336.801V518.921H312.361V543.358ZM337.801 543.358H361.221V518.921H337.801V543.358ZM362.221 543.358H385.643V518.921H362.221V543.358ZM386.643 543.358H410.062V518.921H386.643V543.358ZM411.062 543.358H435.5V518.921H411.062V543.358ZM436.5 543.358H459.922V518.921H436.5V543.358ZM460.922 543.358H484.342V518.921H460.922V543.358ZM485.342 543.358H508.762V518.921H485.342V543.358ZM509.762 543.358H534.201V518.921H509.762V543.358ZM535.201 543.358H558.621V518.921H535.201V543.358ZM559.621 543.358H583.04L583.041 518.921H559.621V543.358ZM-57 517.921H-33.5801V494.5H-57V517.921ZM-32.5801 517.921H-9.1582V494.5H-32.5801V517.921ZM-8.1582 517.921H16.2793V494.5H-8.1582V517.921ZM17.2793 517.921H40.6992V494.5H17.2793V517.921ZM41.6992 517.921H65.1211V494.5H41.6992V517.921ZM66.1211 517.921H89.541V494.5H66.1211V517.921ZM90.541 517.921H113.963V494.5H90.541V517.921ZM114.963 517.921H139.4V494.5H114.963V517.921ZM140.4 517.921H163.82V494.5H140.4V517.921ZM164.82 517.921H188.242V494.5H164.82V517.921ZM189.242 517.921H212.662L212.661 494.5H189.242V517.921ZM213.662 517.921H238.1L238.099 494.5H213.661L213.662 517.921ZM239.1 517.921H262.521L262.521 494.5H239.099L239.1 517.921ZM263.521 517.921H286.941V494.5H263.521L263.521 517.921ZM287.941 517.921H311.361V494.5H287.941V517.921ZM312.361 517.921H336.801V494.5H312.361V517.921ZM337.801 517.921H361.221V494.5H337.801V517.921ZM362.221 517.921H385.643V494.5H362.221V517.921ZM386.643 517.921H410.062V494.5H386.643V517.921ZM411.062 517.921H435.5V494.5H411.062V517.921ZM436.5 517.921H459.922V494.5H436.5V517.921ZM460.922 517.921H484.342V494.5H460.922V517.921ZM485.342 517.921H508.762L508.761 494.5H485.342V517.921ZM509.762 517.921H534.201V494.5H509.761L509.762 517.921ZM535.201 517.921H558.621L558.62 494.5H535.201V517.921ZM559.621 517.921H583.041V494.5H559.62L559.621 517.921ZM559.62 493.5H583.041V470.079H559.62V493.5ZM535.201 493.5H558.62V470.079H535.201V493.5ZM509.761 493.5H534.201V470.079H509.761V493.5ZM485.342 493.5H508.761V470.079H485.342V493.5ZM460.922 493.5H484.342V470.079H460.922V493.5ZM436.5 493.5H459.922V470.079H436.5V493.5ZM411.062 493.5H435.5V470.079H411.062V493.5ZM386.643 493.5H410.062V470.079H386.643V493.5ZM362.221 493.5H385.643V470.079H362.221V493.5ZM337.801 493.5H361.221V470.079H337.801V493.5ZM312.361 493.5H336.801V470.079H312.361V493.5ZM287.941 493.5H311.361V470.079H287.941V493.5ZM263.521 493.5H286.941V470.079H263.521V493.5ZM239.099 493.5H262.521V470.079H239.099V493.5ZM213.661 493.5H238.099V470.079H213.661V493.5ZM189.242 493.5H212.661V470.079H189.242V493.5ZM164.82 493.5H188.242V470.079H164.82V493.5ZM140.4 493.5H163.82V470.079H140.4V493.5ZM114.963 493.5H139.4V470.079H114.963V493.5ZM90.541 493.5H113.963V470.079H90.541V493.5ZM66.1211 493.5H89.541V470.079H66.1211V493.5ZM41.6992 493.5H65.1211V470.079H41.6992V493.5ZM17.2793 493.5H40.6992V470.079H17.2793V493.5ZM-8.1582 493.5H16.2793V470.079H-8.1582V493.5ZM-32.5801 493.5H-9.1582V470.079H-32.5801V493.5ZM-57 493.5H-33.5801V470.079H-57V493.5ZM-57 469.079H-33.5801V445.659H-57V469.079ZM-32.5801 469.079H-9.1582V445.659H-32.5801V469.079ZM-8.1582 469.079H16.2793V445.659H-8.1582V469.079ZM17.2793 469.079H40.6992V445.659H17.2793V469.079ZM41.6992 469.079H65.1211V445.659H41.6992V469.079ZM66.1211 469.079H89.541V445.659H66.1211V469.079ZM90.541 469.079H113.963V445.659H90.541V469.079ZM114.963 469.079H139.4V445.659H114.963V469.079ZM140.4 469.079H163.82V445.659H140.4V469.079ZM164.82 469.079H188.242V445.659H164.82V469.079ZM189.242 469.079H212.661V445.659H189.242V469.079ZM213.661 469.079H238.099V445.659H213.661V469.079ZM239.099 469.079H262.521V445.659H239.099V469.079ZM263.521 469.079H286.941V445.659H263.521V469.079ZM287.941 469.079H311.361V445.659H287.941V469.079ZM312.361 469.079H336.801V445.659H312.361V469.079ZM337.801 469.079H361.221V445.659H337.801V469.079ZM362.221 469.079H385.643V445.659H362.221V469.079ZM386.643 469.079H410.062V445.659H386.643V469.079ZM411.062 469.079H435.5V445.659H411.062V469.079ZM436.5 469.079H459.922V445.659H436.5V469.079ZM460.922 469.079H484.342V445.659H460.922V469.079ZM485.342 469.079H508.761V445.659H485.342V469.079ZM509.761 469.079H534.201V445.659H509.761V469.079ZM535.201 469.079H558.62V445.659H535.201V469.079ZM559.62 469.079H583.041V445.659H559.62V469.079ZM-57 444.659H-33.5801V420.221H-57V444.659ZM-32.5801 444.659H-9.1582V420.221H-32.5801V444.659ZM-8.1582 444.659H16.2793V420.221H-8.1582V444.659ZM17.2793 444.659H40.6992V420.221H17.2793V444.659ZM41.6992 444.659H65.1211V420.221H41.6992V444.659ZM66.1211 444.659H89.541V420.221H66.1211V444.659ZM90.541 444.659H113.963V420.221H90.541V444.659ZM114.963 444.659H139.4V420.221H114.963V444.659ZM140.4 444.659H163.82V420.221H140.4V444.659ZM164.82 444.659H188.242V420.221H164.82V444.659ZM189.242 444.659H212.661L212.662 420.221H189.242V444.659ZM213.661 444.659H238.099L238.1 420.221H213.662L213.661 444.659ZM239.099 444.659H262.521L262.521 420.221H239.1L239.099 444.659ZM263.521 444.659H286.941V420.221H263.521L263.521 444.659ZM287.941 444.659H311.361V420.221H287.941V444.659ZM312.361 444.659H336.801V420.221H312.361V444.659ZM337.801 444.659H361.221V420.221H337.801V444.659ZM362.221 444.659H385.643V420.221H362.221V444.659ZM386.643 444.659H410.062V420.221H386.643V444.659ZM411.062 444.659H435.5V420.221H411.062V444.659ZM436.5 444.659H459.922V420.221H436.5V444.659ZM460.922 444.659H484.342V420.221H460.922V444.659ZM485.342 444.659H508.761L508.762 420.221H485.342V444.659ZM509.761 444.659H534.201V420.221H509.762L509.761 444.659ZM535.201 444.659H558.62L558.621 420.221H535.201V444.659ZM559.62 444.659H583.041V420.221H559.621L559.62 444.659ZM-57 419.221H-33.5801V395.8H-57V419.221ZM-32.5801 419.221H-9.1582V395.8H-32.5801V419.221ZM-8.1582 419.221H16.2793V395.8H-8.1582V419.221ZM17.2793 419.221H40.6992V395.8H17.2793V419.221ZM41.6992 419.221H65.1211V395.8H41.6992V419.221ZM66.1211 419.221H89.541V395.8H66.1211V419.221ZM90.541 419.221H113.963V395.8H90.541V419.221ZM114.963 419.221H139.4V395.8H114.963V419.221ZM140.4 419.221H163.82V395.8H140.4V419.221ZM164.82 419.221H188.242V395.8H164.82V419.221ZM189.242 419.221H212.662V395.8H189.242V419.221ZM213.662 419.221H238.1V395.8H213.662V419.221ZM239.1 419.221H262.521V395.8H239.1V419.221ZM263.521 419.221H286.941V395.8H263.521V419.221ZM287.941 419.221H311.361L311.36 395.8H287.941V419.221ZM312.361 419.221H336.801V395.8H312.36L312.361 419.221ZM337.801 419.221H361.221L361.22 395.8H337.801V419.221ZM362.221 419.221H385.643L385.642 395.8H362.22L362.221 419.221ZM386.643 419.221H410.062V395.8H386.642L386.643 419.221ZM411.062 419.221H435.5V395.8H411.062V419.221ZM436.5 419.221H459.922V395.8H436.5V419.221ZM460.922 419.221H484.342V395.8H460.922V419.221ZM485.342 419.221H508.762V395.8H485.342V419.221ZM509.762 419.221H534.201V395.8H509.762V419.221ZM535.201 419.221H558.621V395.8H535.201V419.221ZM559.621 419.221H583.041V395.8H559.621V419.221ZM-57 394.8H-33.5801V371.379H-57V394.8ZM-32.5801 394.8H-9.1582V371.379H-32.5801V394.8ZM-8.1582 394.8H16.2793V371.379H-8.1582V394.8ZM17.2793 394.8H40.6992V371.379H17.2793V394.8ZM41.6992 394.8H65.1211V371.379H41.6992V394.8ZM66.1211 394.8H89.541V371.379H66.1211V394.8ZM90.541 394.8H113.963V371.379H90.541V394.8ZM114.963 394.8H139.4V371.379H114.963V394.8ZM140.4 394.8H163.82V371.379H140.4V394.8ZM164.82 394.8H188.242V371.379H164.82V394.8ZM189.242 394.8H212.662V371.379H189.242V394.8ZM213.662 394.8H238.1V371.379H213.662V394.8ZM239.1 394.8H262.521V371.379H239.1V394.8ZM263.521 394.8H286.941V371.379H263.521V394.8ZM287.941 394.8H311.36V371.379H287.941V394.8ZM312.36 394.8H336.801V371.379H312.36V394.8ZM337.801 394.8H361.22V371.379H337.801V394.8ZM362.22 394.8H385.642V371.379H362.22V394.8ZM386.642 394.8H410.062V371.379H386.642V394.8ZM411.062 394.8H435.5V371.379H411.062V394.8ZM436.5 394.8H459.922V371.379H436.5V394.8ZM460.922 394.8H484.342V371.379H460.922V394.8ZM485.342 394.8H508.762V371.379H485.342V394.8ZM509.762 394.8H534.201V371.379H509.762V394.8ZM535.201 394.8H558.621V371.379H535.201V394.8ZM559.621 394.8H583.041V371.379H559.621V394.8ZM-57 370.379H-33.5801V346.959H-57V370.379ZM-32.5801 370.379H-9.1582V346.959H-32.5801V370.379ZM-8.1582 370.379H16.2793V346.959H-8.1582V370.379ZM17.2793 370.379H40.6992V346.959H17.2793V370.379ZM41.6992 370.379H65.1211V346.959H41.6992V370.379ZM66.1211 370.379H89.541V346.959H66.1211V370.379ZM90.541 370.379H113.963V346.959H90.541V370.379ZM114.963 370.379H139.4V346.959H114.963V370.379ZM140.4 370.379H163.82V346.959H140.4V370.379ZM164.82 370.379H188.242V346.959H164.82V370.379ZM189.242 370.379H212.662V346.959H189.242V370.379ZM213.662 370.379H238.1V346.959H213.662V370.379ZM239.1 370.379H262.521V346.959H239.1V370.379ZM263.521 370.379H286.941V346.959H263.521V370.379ZM287.941 370.379H311.36V346.959H287.941V370.379ZM312.36 370.379H336.801V346.959H312.36V370.379ZM337.801 370.379H361.22V346.959H337.801V370.379ZM362.22 370.379H385.642V346.959H362.22V370.379ZM386.642 370.379H410.062V346.959H386.642V370.379ZM411.062 370.379H435.5V346.959H411.062V370.379ZM436.5 370.379H459.922V346.959H436.5V370.379ZM460.922 370.379H484.342V346.959H460.922V370.379ZM485.342 370.379H508.762V346.959H485.342V370.379ZM509.762 370.379H534.201V346.959H509.762V370.379ZM535.201 370.379H558.621V346.959H535.201V370.379ZM559.621 370.379H583.041V346.959H559.621V370.379ZM-57 345.959H-33.5801V322.538H-57V345.959ZM-32.5801 345.959H-9.1582V322.538H-32.5801V345.959ZM-8.1582 345.959H16.2793V322.538H-8.1582V345.959ZM17.2793 345.959H40.6992V322.538H17.2793V345.959ZM41.6992 345.959H65.1211V322.538H41.6992V345.959ZM66.1211 345.959H89.541V322.538H66.1211V345.959ZM90.541 345.959H113.963V322.538H90.541V345.959ZM114.963 345.959H139.4V322.538H114.963V345.959ZM140.4 345.959H163.82V322.538H140.4V345.959ZM164.82 345.959H188.242V322.538H164.82V345.959ZM189.242 345.959H212.662V322.538H189.242V345.959ZM213.662 345.959H238.1V322.538H213.662V345.959ZM239.1 345.959H262.521V322.538H239.1V345.959ZM263.521 345.959H286.941V322.538H263.521V345.959ZM287.941 345.959H311.361V322.538H287.941V345.959ZM312.361 345.959H336.801V322.538H312.361V345.959ZM337.801 345.959H361.221V322.538H337.801V345.959ZM362.221 345.959H385.643V322.538H362.221V345.959ZM386.643 345.959H410.062V322.538H386.643V345.959ZM411.062 345.959H435.5V322.538H411.062V345.959ZM436.5 345.959H459.922V322.538H436.5V345.959ZM460.922 345.959H484.342V322.538H460.922V345.959ZM485.342 345.959H508.762V322.538H485.342V345.959ZM509.762 345.959H534.201V322.538H509.762V345.959ZM535.201 345.959H558.621V322.538H535.201V345.959ZM559.621 345.959H583.041V322.538H559.621V345.959ZM-57 321.538H-33.5801V297.1H-57V321.538ZM-32.5801 321.538H-9.1582V297.1H-32.5801V321.538ZM-8.1582 321.538H16.2793V297.1H-8.1582V321.538ZM17.2793 321.538H40.6992V297.1H17.2793V321.538ZM41.6992 321.538H65.1211V297.1H41.6992V321.538ZM66.1211 321.538H89.541V297.1H66.1211V321.538ZM90.541 321.538H113.963V297.1H90.541V321.538ZM114.963 321.538H139.4V297.1H114.963V321.538ZM140.4 321.538H163.82V297.1H140.4V321.538ZM164.82 321.538H188.242V297.1H164.82V321.538ZM189.242 321.538H212.662L212.661 297.1H189.242V321.538ZM213.662 321.538H238.1L238.099 297.1H213.661L213.662 321.538ZM239.1 321.538H262.521L262.521 297.1H239.099L239.1 321.538ZM263.521 321.538H286.941V297.1H263.521L263.521 321.538ZM287.941 321.538H311.361V297.1H287.941V321.538ZM312.361 321.538H336.801V297.1H312.361V321.538ZM337.801 321.538H361.221V297.1H337.801V321.538ZM362.221 321.538H385.643V297.1H362.221V321.538ZM386.643 321.538H410.062V297.1H386.643V321.538ZM411.062 321.538H435.5V297.1H411.062V321.538ZM436.5 321.538H459.922V297.1H436.5V321.538ZM460.922 321.538H484.342V297.1H460.922V321.538ZM485.342 321.538H508.762L508.761 297.1H485.342V321.538ZM509.762 321.538H534.201V297.1H509.761L509.762 321.538ZM535.201 321.538H558.621L558.62 297.1H535.201V321.538ZM559.621 321.538H583.041L583.04 297.1H559.62L559.621 321.538ZM-57 296.1H-33.5801V272.68H-57V296.1ZM-32.5801 296.1H-9.1582V272.68H-32.5801V296.1ZM-8.1582 296.1H16.2793V272.68H-8.1582V296.1ZM17.2793 296.1H40.6992V272.68H17.2793V296.1ZM41.6992 296.1H65.1211V272.68H41.6992V296.1ZM66.1211 296.1H89.541V272.68H66.1211V296.1ZM90.541 296.1H113.963V272.68H90.541V296.1ZM114.963 296.1H139.4V272.68H114.963V296.1ZM140.4 296.1H163.82V272.68H140.4V296.1ZM164.82 296.1H188.242V272.68H164.82V296.1ZM189.242 296.1H212.661V272.68H189.242V296.1ZM213.661 296.1H238.099V272.68H213.661V296.1ZM239.099 296.1H262.521V272.68H239.099V296.1ZM263.521 296.1H286.941V272.68H263.521V296.1ZM287.941 296.1H311.361V272.68H287.941V296.1ZM312.361 296.1H336.801V272.68H312.361V296.1ZM337.801 296.1H361.221V272.68H337.801V296.1ZM362.221 296.1H385.643V272.68H362.221V296.1ZM386.643 296.1H410.062V272.68H386.643V296.1ZM411.062 296.1H435.5V272.68H411.062V296.1ZM436.5 296.1H459.922V272.68H436.5V296.1ZM460.922 296.1H484.342V272.68H460.922V296.1ZM485.342 296.1H508.761V272.68H485.342V296.1ZM509.761 296.1H534.201V272.68H509.761V296.1ZM535.201 296.1H558.62V272.68H535.201V296.1ZM559.62 296.1H583.04L583.041 272.68H559.62V296.1ZM-57 271.68H-33.5801V248.259H-57V271.68ZM-32.5801 271.68H-9.1582V248.259H-32.5801V271.68ZM-8.1582 271.68H16.2793V248.259H-8.1582V271.68ZM17.2793 271.68H40.6992V248.259H17.2793V271.68ZM41.6992 271.68H65.1211V248.259H41.6992V271.68ZM66.1211 271.68H89.541V248.259H66.1211V271.68ZM90.541 271.68H113.963V248.259H90.541V271.68ZM114.963 271.68H139.4V248.259H114.963V271.68ZM140.4 271.68H163.82V248.259H140.4V271.68ZM164.82 271.68H188.242V248.259H164.82V271.68ZM189.242 271.68H212.661V248.259H189.242V271.68ZM213.661 271.68H238.099V248.259H213.661V271.68ZM239.099 271.68H262.521V248.259H239.099V271.68ZM263.521 271.68H286.941V248.259H263.521V271.68ZM287.941 271.68H311.361V248.259H287.941V271.68ZM312.361 271.68H336.801V248.259H312.361V271.68ZM337.801 271.68H361.221V248.259H337.801V271.68ZM362.221 271.68H385.643V248.259H362.221V271.68ZM386.643 271.68H410.062V248.259H386.643V271.68ZM411.062 271.68H435.5V248.259H411.062V271.68ZM436.5 271.68H459.922V248.259H436.5V271.68ZM460.922 271.68H484.342V248.259H460.922V271.68ZM485.342 271.68H508.761V248.259H485.342V271.68ZM509.761 271.68H534.201V248.259H509.761V271.68ZM535.201 271.68H558.62V248.259H535.201V271.68ZM559.62 271.68H583.041V248.259H559.62V271.68ZM-57 247.259H-33.5801V223.838H-57V247.259ZM-32.5801 247.259H-9.1582V223.838H-32.5801V247.259ZM-8.1582 247.259H16.2793V223.838H-8.1582V247.259ZM17.2793 247.259H40.6992V223.838H17.2793V247.259ZM41.6992 247.259H65.1211V223.838H41.6992V247.259ZM66.1211 247.259H89.541V223.838H66.1211V247.259ZM90.541 247.259H113.963V223.838H90.541V247.259ZM114.963 247.259H139.4V223.838H114.963V247.259ZM140.4 247.259H163.82V223.838H140.4V247.259ZM164.82 247.259H188.242V223.838H164.82V247.259ZM189.242 247.259H212.661V223.838H189.242V247.259ZM213.661 247.259H238.099V223.838H213.661V247.259ZM239.099 247.259H262.521V223.838H239.099V247.259ZM263.521 247.259H286.941V223.838H263.521V247.259ZM287.941 247.259H311.361V223.838H287.941V247.259ZM312.361 247.259H336.801V223.838H312.361V247.259ZM337.801 247.259H361.221V223.838H337.801V247.259ZM362.221 247.259H385.643V223.838H362.221V247.259ZM386.643 247.259H410.062V223.838H386.643V247.259ZM411.062 247.259H435.5V223.838H411.062V247.259ZM436.5 247.259H459.922V223.838H436.5V247.259ZM460.922 247.259H484.342V223.838H460.922V247.259ZM485.342 247.259H508.761V223.838H485.342V247.259ZM509.761 247.259H534.201V223.838H509.761V247.259ZM535.201 247.259H558.62V223.838H535.201V247.259ZM559.62 247.259H583.041V223.838H559.62V247.259ZM-57 222.838H-33.5801V198.399H-57V222.838ZM-32.5801 222.838H-9.1582V198.399H-32.5801V222.838ZM-8.1582 222.838H16.2793V198.399H-8.1582V222.838ZM17.2793 222.838H40.6992V198.399H17.2793V222.838ZM41.6992 222.838H65.1211V198.399H41.6992V222.838ZM66.1211 222.838H89.541V198.399H66.1211V222.838ZM90.541 222.838H113.963V198.399H90.541V222.838ZM114.963 222.838H139.4V198.399H114.963V222.838ZM140.4 222.838H163.82V198.399H140.4V222.838ZM164.82 222.838H188.242V198.399H164.82V222.838ZM189.242 222.838H212.661V198.399H189.242V222.838ZM213.661 222.838H238.099V198.399H213.661V222.838ZM239.099 222.838H262.521V198.399H239.099V222.838ZM263.521 222.838H286.941V198.399H263.521V222.838ZM287.941 222.838H311.361V198.399H287.941V222.838ZM312.361 222.838H336.801V198.399H312.361V222.838ZM337.801 222.838H361.221V198.399H337.801V222.838ZM362.221 222.838H385.643V198.399H362.221V222.838ZM386.643 222.838H410.062V198.399H386.643V222.838ZM411.062 222.838H435.5V198.399H411.062V222.838ZM436.5 222.838H459.922V198.399H436.5V222.838ZM460.922 222.838H484.342V198.399H460.922V222.838ZM485.342 222.838H508.761V198.399H485.342V222.838ZM509.761 222.838H534.201V198.399H509.761V222.838ZM535.201 222.838H558.62V198.399H535.201V222.838ZM559.62 222.838H583.041L583.04 198.399H559.62V222.838ZM-57 197.399H-33.5801V173.979H-57V197.399ZM-32.5801 197.399H-9.1582V173.979H-32.5801V197.399ZM-8.1582 197.399H16.2793V173.979H-8.1582V197.399ZM17.2793 197.399H40.6992V173.979H17.2793V197.399ZM41.6992 197.399H65.1211V173.979H41.6992V197.399ZM66.1211 197.399H89.541V173.979H66.1211V197.399ZM90.541 197.399H113.963V173.979H90.541V197.399ZM114.963 197.399H139.4V173.979H114.963V197.399ZM140.4 197.399H163.82V173.979H140.4V197.399ZM164.82 197.399H188.242V173.979H164.82V197.399ZM189.242 197.399H212.661L212.662 173.979H189.242V197.399ZM213.661 197.399H238.099L238.1 173.979H213.662L213.661 197.399ZM239.099 197.399H262.521L262.521 173.979H239.1L239.099 197.399ZM263.521 197.399H286.941V173.979H263.521L263.521 197.399ZM287.941 197.399H311.361V173.979H287.941V197.399ZM312.361 197.399H336.801V173.979H312.361V197.399ZM337.801 197.399H361.221V173.979H337.801V197.399ZM362.221 197.399H385.643V173.979H362.221V197.399ZM386.643 197.399H410.062V173.979H386.643V197.399ZM411.062 197.399H435.5V173.979H411.062V197.399ZM436.5 197.399H459.922V173.979H436.5V197.399ZM460.922 197.399H484.342V173.979H460.922V197.399ZM485.342 197.399H508.761L508.762 173.979H485.342V197.399ZM509.761 197.399H534.201V173.979H509.762L509.761 197.399ZM535.201 197.399H558.62L558.621 173.979H535.201V197.399ZM559.62 197.399H583.04L583.041 173.979H559.621L559.62 197.399ZM-57 172.979H-33.5801V149.559H-57V172.979ZM-32.5801 172.979H-9.1582V149.559H-32.5801V172.979ZM-8.1582 172.979H16.2793V149.559H-8.1582V172.979ZM17.2793 172.979H40.6992V149.559H17.2793V172.979ZM41.6992 172.979H65.1211V149.559H41.6992V172.979ZM66.1211 172.979H89.541V149.559H66.1211V172.979ZM90.541 172.979H113.963V149.559H90.541V172.979ZM114.963 172.979H139.4V149.559H114.963V172.979ZM140.4 172.979H163.82V149.559H140.4V172.979ZM164.82 172.979H188.242V149.559H164.82V172.979ZM189.242 172.979H212.662V149.559H189.242V172.979ZM213.662 172.979H238.1V149.559H213.662V172.979ZM239.1 172.979H262.521V149.559H239.1V172.979ZM263.521 172.979H286.941V149.559H263.521V172.979ZM287.941 172.979H311.361V149.559H287.941V172.979ZM312.361 172.979H336.801V149.559H312.361V172.979ZM337.801 172.979H361.221V149.559H337.801V172.979ZM362.221 172.979H385.643V149.559H362.221V172.979ZM386.643 172.979H410.062V149.559H386.643V172.979ZM411.062 172.979H435.5V149.559H411.062V172.979ZM436.5 172.979H459.922V149.559H436.5V172.979ZM460.922 172.979H484.342V149.559H460.922V172.979ZM485.342 172.979H508.762V149.559H485.342V172.979ZM509.762 172.979H534.201V149.559H509.762V172.979ZM535.201 172.979H558.621V149.559H535.201V172.979ZM559.621 172.979H583.041V149.559H559.621V172.979ZM-57 148.559H-33.5801V125.138H-57V148.559ZM-32.5801 148.559H-9.1582V125.138H-32.5801V148.559ZM-8.1582 148.559H16.2793V125.138H-8.1582V148.559ZM17.2793 148.559H40.6992V125.138H17.2793V148.559ZM41.6992 148.559H65.1211V125.138H41.6992V148.559ZM66.1211 148.559H89.541V125.138H66.1211V148.559ZM90.541 148.559H113.963V125.138H90.541V148.559ZM114.963 148.559H139.4V125.138H114.963V148.559ZM140.4 148.559H163.82V125.138H140.4V148.559ZM164.82 148.559H188.242V125.138H164.82V148.559ZM189.242 148.559H212.662V125.138H189.242V148.559ZM213.662 148.559H238.1V125.138H213.662V148.559ZM239.1 148.559H262.521V125.138H239.1V148.559ZM263.521 148.559H286.941V125.138H263.521V148.559ZM287.941 148.559H311.361V125.138H287.941V148.559ZM312.361 148.559H336.801V125.138H312.361V148.559ZM337.801 148.559H361.221V125.138H337.801V148.559ZM362.221 148.559H385.643V125.138H362.221V148.559ZM386.643 148.559H410.062V125.138H386.643V148.559ZM411.062 148.559H435.5V125.138H411.062V148.559ZM436.5 148.559H459.922V125.138H436.5V148.559ZM460.922 148.559H484.342V125.138H460.922V148.559ZM485.342 148.559H508.762V125.138H485.342V148.559ZM509.762 148.559H534.201V125.138H509.762V148.559ZM535.201 148.559H558.621V125.138H535.201V148.559ZM559.621 148.559H583.041V125.138H559.621V148.559ZM-57 124.138H-33.5801V99.7002H-57V124.138ZM-32.5801 124.138H-9.1582V99.7002H-32.5801V124.138ZM-8.1582 124.138H16.2793V99.7002H-8.1582V124.138ZM17.2793 124.138H40.6992V99.7002H17.2793V124.138ZM41.6992 124.138H65.1211V99.7002H41.6992V124.138ZM66.1211 124.138H89.541V99.7002H66.1211V124.138ZM90.541 124.138H113.963V99.7002H90.541V124.138ZM114.963 124.138H139.4V99.7002H114.963V124.138ZM140.4 124.138H163.82V99.7002H140.4V124.138ZM164.82 124.138H188.242V99.7002H164.82V124.138ZM189.242 124.138H212.662V99.7002H189.242V124.138ZM213.662 124.138H238.1V99.7002H213.662V124.138ZM239.1 124.138H262.521V99.7002H239.1V124.138ZM263.521 124.138H286.941V99.7002H263.521V124.138ZM287.941 124.138H311.361V99.7002H287.941V124.138ZM312.361 124.138H336.801V99.7002H312.361V124.138ZM337.801 124.138H361.221V99.7002H337.801V124.138ZM362.221 124.138H385.643L385.642 99.7002H362.221V124.138ZM386.643 124.138H410.062V99.7002H386.642L386.643 124.138ZM411.062 124.138H435.5V99.7002H411.062V124.138ZM436.5 124.138H459.922V99.7002H436.5V124.138ZM460.922 124.138H484.342V99.7002H460.922V124.138ZM485.342 124.138H508.762V99.7002H485.342V124.138ZM509.762 124.138H534.201V99.7002H509.762V124.138ZM535.201 124.138H558.621V99.7002H535.201V124.138ZM559.621 124.138H583.041V99.7002H559.621V124.138ZM-57 98.7002H-33.5801V75.2793H-57V98.7002ZM-32.5801 98.7002H-9.1582V75.2793H-32.5801V98.7002ZM-8.1582 98.7002H16.2793V75.2793H-8.1582V98.7002ZM17.2793 98.7002H40.6992V75.2793H17.2793V98.7002ZM41.6992 98.7002H65.1211V75.2793H41.6992V98.7002ZM66.1211 98.7002H89.541V75.2793H66.1211V98.7002ZM90.541 98.7002H113.963V75.2793H90.541V98.7002ZM114.963 98.7002H139.4V75.2793H114.963V98.7002ZM140.4 98.7002H163.82V75.2793H140.4V98.7002ZM164.82 98.7002H188.242V75.2793H164.82V98.7002ZM189.242 98.7002H212.662V75.2793H189.242V98.7002ZM213.662 98.7002H238.1V75.2793H213.662V98.7002ZM239.1 98.7002H262.521V75.2793H239.1V98.7002ZM263.521 98.7002H286.941V75.2793H263.521V98.7002ZM287.941 98.7002H311.361V75.2793H287.941V98.7002ZM312.361 98.7002H336.801V75.2793H312.361V98.7002ZM337.801 98.7002H361.221V75.2793H337.801V98.7002ZM362.221 98.7002H385.642V75.2793H362.221V98.7002ZM386.642 98.7002H410.062V75.2793H386.642V98.7002ZM411.062 98.7002H435.5V75.2793H411.062V98.7002ZM436.5 98.7002H459.922V75.2793H436.5V98.7002ZM460.922 98.7002H484.342V75.2793H460.922V98.7002ZM485.342 98.7002H508.762V75.2793H485.342V98.7002ZM509.762 98.7002H534.201V75.2793H509.762V98.7002ZM535.201 98.7002H558.621V75.2793H535.201V98.7002ZM559.621 98.7002H583.041V75.2793H559.621V98.7002ZM-57 74.2793H-33.5801V50.8584H-57V74.2793ZM-32.5801 74.2793H-9.1582V50.8584H-32.5801V74.2793ZM-8.1582 74.2793H16.2793V50.8584H-8.1582V74.2793ZM17.2793 74.2793H40.6992V50.8584H17.2793V74.2793ZM41.6992 74.2793H65.1211V50.8584H41.6992V74.2793ZM66.1211 74.2793H89.541V50.8584H66.1211V74.2793ZM90.541 74.2793H113.963V50.8584H90.541V74.2793ZM114.963 74.2793H139.4V50.8584H114.963V74.2793ZM140.4 74.2793H163.82V50.8584H140.4V74.2793ZM164.82 74.2793H188.242V50.8584H164.82V74.2793ZM189.242 74.2793H212.662V50.8584H189.242V74.2793ZM213.662 74.2793H238.1V50.8584H213.662V74.2793ZM239.1 74.2793H262.521V50.8584H239.1V74.2793ZM263.521 74.2793H286.941V50.8584H263.521V74.2793ZM287.941 74.2793H311.361V50.8584H287.941V74.2793ZM312.361 74.2793H336.801V50.8584H312.361V74.2793ZM337.801 74.2793H361.221V50.8584H337.801V74.2793ZM362.221 74.2793H385.642V50.8584H362.221V74.2793ZM386.642 74.2793H410.062V50.8584H386.642V74.2793ZM411.062 74.2793H435.5V50.8584H411.062V74.2793ZM436.5 74.2793H459.922V50.8584H436.5V74.2793ZM460.922 74.2793H484.342V50.8584H460.922V74.2793ZM485.342 74.2793H508.762V50.8584H485.342V74.2793ZM509.762 74.2793H534.201V50.8584H509.762V74.2793ZM535.201 74.2793H558.621V50.8584H535.201V74.2793ZM559.621 74.2793H583.041V50.8584H559.621V74.2793ZM-57 49.8584H-33.5801V26.4375H-57V49.8584ZM-32.5801 49.8584H-9.1582V26.4375H-32.5801V49.8584ZM-8.1582 49.8584H16.2793V26.4375H-8.1582V49.8584ZM17.2793 49.8584H40.6992V26.4375H17.2793V49.8584ZM41.6992 49.8584H65.1211V26.4375H41.6992V49.8584ZM66.1211 49.8584H89.541V26.4375H66.1211V49.8584ZM90.541 49.8584H113.963V26.4375H90.541V49.8584ZM114.963 49.8584H139.4V26.4375H114.963V49.8584ZM140.4 49.8584H163.82V26.4375H140.4V49.8584ZM164.82 49.8584H188.242V26.4375H164.82V49.8584ZM189.242 49.8584H212.662V26.4375H189.242V49.8584ZM213.662 49.8584H238.1V26.4375H213.662V49.8584ZM239.1 49.8584H262.521V26.4375H239.1V49.8584ZM263.521 49.8584H286.941V26.4375H263.521V49.8584ZM287.941 49.8584H311.361V26.4375H287.941V49.8584ZM312.361 49.8584H336.801V26.4375H312.361V49.8584ZM337.801 49.8584H361.221V26.4375H337.801V49.8584ZM362.221 49.8584H385.642V26.4375H362.221V49.8584ZM386.642 49.8584H410.062V26.4375H386.642V49.8584ZM411.062 49.8584H435.5V26.4375H411.062V49.8584ZM436.5 49.8584H459.922V26.4375H436.5V49.8584ZM460.922 49.8584H484.342V26.4375H460.922V49.8584ZM485.342 49.8584H508.762V26.4375H485.342V49.8584ZM509.762 49.8584H534.201V26.4375H509.762V49.8584ZM535.201 49.8584H558.621V26.4375H535.201V49.8584ZM559.621 49.8584H583.041V26.4375H559.621V49.8584ZM-57 25.4375H-33.5801V1H-57V25.4375ZM-32.5801 25.4375H-9.1582V1H-32.5801V25.4375ZM-8.1582 25.4375H16.2793V1H-8.1582V25.4375ZM17.2793 25.4375H40.6992V1H17.2793V25.4375ZM41.6992 25.4375H65.1211V1H41.6992V25.4375ZM66.1211 25.4375H89.541V1H66.1211V25.4375ZM90.541 25.4375H113.963V1H90.541V25.4375ZM114.963 25.4375H139.4V1H114.963V25.4375ZM140.4 25.4375H163.82V1H140.4V25.4375ZM164.82 25.4375H188.242V1H164.82V25.4375ZM189.242 25.4375H212.662V1H189.242V25.4375ZM213.662 25.4375H238.1V1H213.662V25.4375ZM239.1 25.4375H262.521V1H239.1V25.4375ZM263.521 25.4375H286.941V1H263.521V25.4375ZM287.941 25.4375H311.361V1H287.941V25.4375ZM312.361 25.4375H336.801V1H312.361V25.4375ZM337.801 25.4375H361.221V1H337.801V25.4375ZM362.221 25.4375H385.642L385.643 1H362.221V25.4375ZM386.642 25.4375H410.062V1H386.643L386.642 25.4375ZM411.062 25.4375H435.5V1H411.062V25.4375ZM436.5 25.4375H459.922V1H436.5V25.4375ZM460.922 25.4375H484.342V1H460.922V25.4375ZM485.342 25.4375H508.762V1H485.342V25.4375ZM509.762 25.4375H534.201V1H509.762V25.4375ZM535.201 25.4375H558.621V1H535.201V25.4375ZM559.621 25.4375H583.041V1H559.621V25.4375Z" fill="url(#paint0_radial_352_278)"></path><defs><radialGradient id="paint0_radial_352_278" cx="0" cy="0" r="1" gradientUnits="userSpaceOnUse" gradientTransform="translate(254 298.28) rotate(-90) scale(351 341.792)"><stop offset="0.365385" stop-color="#D81259"></stop><stop offset="0.620192" stop-color="#D81259"></stop><stop offset="1"></stop></radialGradient></defs></svg> 