<?xml version="1.0" encoding="UTF-8"?> <svg xmlns="http://www.w3.org/2000/svg" width="58" height="58" viewBox="0 0 58 58" fill="none"><path d="M29 38.6667V50.75M38.6667 33.8333V50.75M48.3334 24.1667V50.75M53.1667 7.25L32.2722 28.1445C32.16 28.257 32.0266 28.3463 31.8798 28.4072C31.733 28.4681 31.5756 28.4995 31.4167 28.4995C31.2578 28.4995 31.1004 28.4681 30.9536 28.4072C30.8068 28.3463 30.6734 28.257 30.5612 28.1445L22.6055 20.1888C22.3789 19.9623 22.0717 19.835 21.7512 19.835C21.4308 19.835 21.1236 19.9623 20.897 20.1888L4.83337 36.25M9.66671 43.5V50.75M19.3334 33.8333V50.75" stroke="#FFC136" stroke-width="2" stroke-linecap="round" stroke-linejoin="round"></path></svg> 