<?xml version="1.0" encoding="UTF-8"?> <svg xmlns="http://www.w3.org/2000/svg" width="1921" height="521" viewBox="0 0 1921 521" fill="none"><path fill-rule="evenodd" clip-rule="evenodd" d="M396.44 151.863C339.469 118.75 282.469 85.6857 225.473 52.6216L185.07 76.0695C242.06 109.158 299.055 142.246 356.036 175.335C312.515 200.578 268.984 225.841 225.478 251.104C153.462 209.297 81.441 167.509 9.42969 125.702L54.5069 99.5417C111.497 132.611 168.493 165.694 225.473 198.783L265.877 175.311C208.886 142.246 151.906 109.158 94.9105 76.0695C138.48 50.7579 182.055 25.4708 225.629 0.183594C297.597 42.0394 369.569 83.8269 441.517 125.702C426.486 134.421 411.47 143.144 396.44 151.863Z" fill="#8C1C5F"></path><path fill-rule="evenodd" clip-rule="evenodd" d="M217.293 271.276C217.327 288.528 217.347 305.76 217.371 323.012L45.9363 224.034C45.8484 272.486 45.7899 320.938 45.6777 369.386C87.6424 393.609 129.602 417.838 171.557 442.061L171.645 395.419C143.277 378.792 114.64 362.501 86.1593 346.05L86.2472 294.002C129.978 319.255 173.821 344.328 217.454 369.761C217.556 420.111 217.62 470.461 217.698 520.816C145.301 479.053 72.9338 437.192 0.517578 395.424L0.932249 145.748L217.293 271.276Z" fill="#3686C1"></path><path fill-rule="evenodd" clip-rule="evenodd" d="M412.647 369.032L412.579 322.487C355.715 355.317 298.847 388.142 241.983 420.997C241.89 371.149 241.89 321.326 241.715 271.484C313.57 229.76 385.445 188.05 457.319 146.346C457.339 163.563 457.363 180.781 457.412 197.998C400.544 230.853 343.656 263.678 286.787 296.507L286.875 343.076C343.743 310.227 400.607 277.397 457.475 244.567C457.563 294.727 457.656 344.857 457.719 395.017C385.869 436.521 313.99 478.001 242.139 519.511L242.164 467.478C298.988 434.648 355.852 401.886 412.652 369.037L412.647 369.032Z" fill="#FFB03F"></path><path d="M602.323 242.312C596.464 241.229 593.903 237.696 594.371 232.032L594.718 228.041C595.186 222.298 598.562 219.269 604.689 219.464C623.647 219.854 632.872 220.049 640.39 220.049C656.001 220.049 660.202 216.102 660.202 207.042C660.202 198.934 656.465 195.152 647.459 192.181L620.491 182.614C599.943 175.237 592.459 161.615 592.459 143.212C592.459 114.715 606.694 105.977 641.454 105.977C652.264 105.977 665.329 106.64 677.881 109.206C683.35 110.368 685.76 114.09 685.218 119.681L684.945 122.716C684.477 128.458 681.179 131.488 675.437 131.293C665.183 130.981 652.542 130.859 641.663 130.859C627.267 130.859 622.159 132.903 622.159 143.188C622.159 151.057 626.121 155.151 636.248 158.424L661.709 167.148C683.321 174.764 690.17 188.659 690.17 206.818C690.17 235.047 676.979 245.615 640.258 245.615C632.887 245.615 618.964 245.224 602.318 242.307L602.323 242.312Z" fill="white"></path><path d="M709.085 233.812L713.192 123.93C713.539 113.831 719.095 108.469 729.194 108.469H748.683C758.079 108.469 763.831 113.05 765.855 122.252L781.652 185.247C782.984 190.712 783.73 195.82 784.599 201.162C784.911 203.377 785.613 204.158 786.438 204.158C787.262 204.158 787.965 203.455 788.282 201.162C789.15 195.815 789.97 190.59 791.306 185.126L806.722 122.325C808.674 113.045 814.421 108.469 823.895 108.469H843.599C853.697 108.469 859.254 113.831 859.722 123.93L864.064 233.812C864.259 239.822 861.157 243.121 855.146 243.121H845.316C839.501 243.121 836.32 240.018 836.047 234.202L832.134 135.063C831.939 132.653 831.354 131.756 830.334 131.756C829.124 131.756 828.344 132.458 827.876 134.673L808.674 210.881C806.566 220.2 800.819 224.708 791.306 224.708H781.179C771.783 224.708 766.031 220.087 763.928 210.881L744.727 134.673C744.258 132.458 743.556 131.756 742.463 131.756C741.37 131.756 740.785 132.653 740.59 135.063L737.146 234.202C736.95 240.018 733.77 243.121 727.954 243.121H718.124C712.114 243.121 708.889 239.822 709.085 233.812Z" fill="white"></path><path d="M886.378 243.125C879.705 243.125 876.797 239.208 878.739 232.802L913.049 120.602C915.532 112.465 920.806 108.469 929.455 108.469H948.169C956.819 108.469 962.092 112.465 964.575 120.602L999.003 232.802C1000.94 239.203 998.037 243.125 991.363 243.125H979.86C974.391 243.125 971.093 240.608 969.693 235.334L962.688 210.588C962.219 208.681 960.975 207.749 959.107 207.749H918.63C916.766 207.749 915.517 208.681 915.049 210.588L908.044 235.334C906.644 240.608 903.346 243.125 897.877 243.125H886.369H886.378ZM952.028 184.74C954.404 184.74 955.453 183.296 954.867 181.042L944.33 143.606C943.549 140.494 942.652 137.108 942.022 133.922C941.632 131.863 940.656 130.926 938.978 130.926H938.783C937.105 130.926 936.051 131.936 935.617 133.922C934.914 137.113 934.207 140.377 933.426 143.606L922.889 181.042C922.303 183.296 923.357 184.74 925.728 184.74H952.023H952.028Z" fill="white"></path><path d="M1015.88 234.007V120.569C1015.88 112.567 1019.98 107.962 1028.58 107.493C1039.4 106.83 1051.38 106.635 1064.37 106.635C1098.99 106.635 1118.18 112.036 1118.18 146.193C1118.18 170.294 1106.14 176.095 1094.97 179.32C1092.91 180.023 1092.6 180.872 1094.78 181.696C1101.4 184.243 1108.04 187.619 1111.61 201.158L1120.54 233.002C1122.2 239.286 1119.18 243.126 1112.62 243.126H1100.06C1094.52 243.126 1091.22 240.491 1089.94 235.212L1081.67 201.929C1079.28 193.44 1075.24 190.615 1067.31 190.615H1048.5C1046.32 190.615 1045.19 191.742 1045.19 193.923V234.007C1045.19 239.945 1042.01 243.121 1036.07 243.121H1024.99C1019.06 243.121 1015.88 239.94 1015.88 234.007H1015.88ZM1067.8 167.66C1083.47 167.543 1088.25 163.381 1088.25 148.33C1088.25 133.278 1083.35 129.595 1066.02 129.595C1060.72 129.595 1055.47 129.712 1050.17 129.712C1046.8 129.712 1045.2 131.078 1045.2 134.21V164.347C1045.2 166.528 1046.32 167.655 1048.5 167.655H1067.8V167.66Z" fill="white"></path><path d="M1171.42 234.007V135.898C1171.42 133.717 1170.29 132.59 1168.11 132.59H1140.38C1134.44 132.59 1131.26 129.409 1131.26 123.476V117.587C1131.26 111.65 1134.44 108.469 1140.38 108.469H1232.44C1238.37 108.469 1241.55 111.65 1241.55 117.587V123.476C1241.55 129.414 1238.37 132.59 1232.44 132.59H1204.58C1202.4 132.59 1201.27 133.717 1201.27 135.898V234.007C1201.27 239.944 1198.09 243.121 1192.16 243.121H1180.54C1174.6 243.121 1171.42 239.94 1171.42 234.007Z" fill="white"></path><path d="M1338.62 245.257C1308.43 245.257 1295.72 224.381 1295.72 175.436C1295.72 122.173 1311.62 105.854 1356.04 105.854C1368.21 105.854 1379.06 106.634 1389.2 108.781C1394.67 109.864 1397.16 113.513 1396.5 119.178L1395.95 123.793C1395.29 129.536 1391.99 132.443 1386.26 132.248C1376.02 131.77 1365.87 131.575 1356.96 131.575C1334.44 131.575 1327.01 137.259 1327.01 176.387C1327.01 209.446 1332.33 219.624 1349.06 219.624C1357.32 219.624 1364.24 218.024 1370.65 215.945C1372.4 215.438 1373.33 214.189 1373.33 212.247V174.646C1373.33 168.708 1376.51 165.527 1382.45 165.527H1392.91C1398.85 165.527 1402.02 168.708 1402.02 174.646V234.007C1402.02 239.944 1398.84 243.125 1392.91 243.125H1388.31C1383.14 243.125 1379.92 240.871 1378.53 236.085L1378.23 234.934C1377.84 233.016 1376.2 232.811 1374.22 234.363C1366.71 239.739 1354.49 245.262 1338.63 245.262L1338.62 245.257Z" fill="white"></path><path d="M1425.95 234.007V120.569C1425.95 112.567 1430.05 107.962 1438.65 107.493C1449.47 106.83 1461.45 106.635 1474.44 106.635C1509.06 106.635 1528.25 112.036 1528.25 146.193C1528.25 170.294 1516.21 176.095 1505.04 179.32C1502.98 180.023 1502.67 180.872 1504.85 181.696C1511.47 184.243 1518.11 187.619 1521.68 201.158L1530.61 233.002C1532.27 239.286 1529.25 243.126 1522.69 243.126H1510.14C1504.59 243.126 1501.29 240.491 1500.01 235.212L1491.74 201.929C1489.35 193.44 1485.31 190.615 1477.38 190.615H1458.57C1456.39 190.615 1455.26 191.742 1455.26 193.923V234.007C1455.26 239.945 1452.08 243.121 1446.14 243.121H1435.07C1429.13 243.121 1425.95 239.94 1425.95 234.007H1425.95ZM1477.87 167.66C1493.54 167.543 1498.33 163.381 1498.33 148.33C1498.33 133.278 1493.42 129.595 1476.09 129.595C1470.8 129.595 1465.54 129.712 1460.25 129.712C1456.88 129.712 1455.27 131.078 1455.27 134.21V164.347C1455.27 166.528 1456.4 167.655 1458.58 167.655H1477.87V167.66Z" fill="white"></path><path d="M1549.93 243.125C1543.26 243.125 1540.35 239.208 1542.3 232.802L1576.61 120.602C1579.09 112.465 1584.36 108.469 1593.01 108.469H1611.73C1620.38 108.469 1625.65 112.465 1628.13 120.602L1662.56 232.802C1664.5 239.203 1661.59 243.125 1654.92 243.125H1643.42C1637.95 243.125 1634.65 240.608 1633.25 235.334L1626.24 210.588C1625.78 208.681 1624.53 207.749 1622.66 207.749H1582.19C1580.32 207.749 1579.07 208.681 1578.61 210.588L1571.6 235.334C1570.2 240.608 1566.9 243.125 1561.43 243.125H1549.93H1549.93ZM1615.58 184.74C1617.96 184.74 1619 183.296 1618.42 181.042L1607.88 143.606C1607.1 140.494 1606.2 137.108 1605.57 133.922C1605.18 131.863 1604.21 130.926 1602.53 130.926H1602.33C1600.65 130.926 1599.6 131.936 1599.17 133.922C1598.46 137.113 1597.76 140.377 1596.98 143.606L1586.44 181.042C1585.86 183.296 1586.91 184.74 1589.28 184.74H1615.57H1615.58Z" fill="white"></path><path d="M1679.44 234.007V121.564C1679.44 113.016 1683.99 108.469 1692.53 108.469H1704.95C1712.33 108.469 1716.96 111.308 1720.41 117.807L1754.52 187.111C1756.94 191.966 1759.25 196.781 1761.36 201.787C1762.02 203.187 1762.56 203.773 1763.61 203.773C1764.66 203.773 1765.13 202.567 1765.06 200.855C1764.9 196.161 1764.83 191.351 1764.83 186.579L1764.87 117.587C1764.87 111.65 1768.05 108.469 1773.99 108.469H1784C1789.94 108.469 1793.12 111.65 1793.12 117.587V230.031C1793.12 238.578 1788.57 243.125 1780.03 243.125H1767.49C1760.1 243.125 1755.48 240.286 1752.03 233.787L1717.22 163.41C1714.96 158.902 1712.92 154.242 1710.96 149.505C1710.37 148.105 1709.9 147.446 1708.78 147.446C1707.84 147.446 1707.41 148.422 1707.41 150.061C1707.56 154.989 1707.64 160.116 1707.64 164.971L1707.88 234.012C1707.88 239.949 1704.7 243.125 1698.76 243.125H1688.55C1682.61 243.125 1679.43 239.944 1679.43 234.012L1679.44 234.007Z" fill="white"></path><path d="M1850.39 234.007V135.898C1850.39 133.717 1849.26 132.59 1847.08 132.59H1819.34C1813.41 132.59 1810.23 129.409 1810.23 123.476V117.587C1810.23 111.65 1813.41 108.469 1819.34 108.469H1911.41C1917.34 108.469 1920.52 111.65 1920.52 117.587V123.476C1920.52 129.414 1917.34 132.59 1911.41 132.59H1883.55C1881.37 132.59 1880.24 133.717 1880.24 135.898V234.007C1880.24 239.944 1877.06 243.121 1871.13 243.121H1859.5C1853.57 243.121 1850.39 239.94 1850.39 234.007Z" fill="white"></path><path d="M602.323 428.685C596.464 427.602 593.903 424.069 594.371 418.405L594.718 414.414C595.186 408.672 598.562 405.642 604.689 405.837C623.647 406.227 632.872 406.422 640.39 406.422C656.001 406.422 660.202 402.475 660.202 393.415C660.202 385.307 656.465 381.526 647.459 378.554L620.491 368.987C599.943 361.61 592.459 347.988 592.459 329.585C592.459 301.088 606.694 292.35 641.454 292.35C652.264 292.35 665.329 293.013 677.881 295.579C683.35 296.741 685.76 300.463 685.218 306.054L684.945 309.089C684.477 314.831 681.179 317.861 675.437 317.666C665.183 317.354 652.542 317.232 641.663 317.232C627.267 317.232 622.159 319.276 622.159 329.561C622.159 337.43 626.121 341.524 636.248 344.797L661.709 353.521C683.321 361.137 690.17 375.032 690.17 393.191C690.17 421.42 676.979 431.988 640.258 431.988C632.887 431.988 618.964 431.597 602.318 428.68L602.323 428.685Z" fill="white"></path><path d="M743.252 362.171C743.252 308.177 758.414 292.232 800.896 292.232C843.378 292.232 858.613 308.177 858.613 362.171C858.613 416.165 843.451 432.11 800.896 432.11C758.341 432.11 743.252 416.165 743.252 362.171ZM827.25 362.171C827.25 326.546 821.161 316.275 800.896 316.275C780.631 316.275 774.543 326.546 774.543 362.171C774.543 397.796 780.631 408.066 800.896 408.066C821.161 408.066 827.25 397.796 827.25 362.171Z" fill="white"></path><path d="M917.312 401.307V303.964C917.312 298.027 920.493 294.846 926.43 294.846H937.934C943.871 294.846 947.047 298.027 947.047 303.964V395.336C947.047 402.405 950.052 405.332 957.506 405.332H995.002C1000.74 405.332 1004.04 408.435 1004.39 414.178L1004.66 419.062C1005.01 424.936 1002.11 429.488 996.359 429.502H948.125C926.469 429.502 917.312 417.852 917.312 401.312V401.307Z" fill="white"></path><path d="M1110.19 432.107C1069.6 432.107 1054.87 416.929 1054.87 375.897V303.958C1054.87 298.021 1058.05 294.84 1063.99 294.84H1075.49C1081.43 294.84 1084.61 298.021 1084.61 303.958V375.897C1084.61 400.653 1090.45 408.064 1108.75 408.064C1127.05 408.064 1132.7 400.653 1132.7 375.897V303.958C1132.7 298.021 1135.88 294.84 1141.82 294.84H1153.44C1159.37 294.84 1162.55 298.021 1162.55 303.958V375.897C1162.55 416.929 1148.52 432.107 1110.18 432.107H1110.19Z" fill="white"></path><path d="M1255.27 420.378V322.269C1255.27 320.088 1254.15 318.961 1251.97 318.961H1224.23C1218.3 318.961 1215.12 315.78 1215.12 309.847V303.958C1215.12 298.021 1218.3 294.84 1224.23 294.84H1316.3C1322.23 294.84 1325.41 298.021 1325.41 303.958V309.847C1325.41 315.785 1322.23 318.961 1316.3 318.961H1288.44C1286.26 318.961 1285.13 320.088 1285.13 322.269V420.378C1285.13 426.316 1281.95 429.492 1276.02 429.492H1264.39C1258.46 429.492 1255.27 426.311 1255.27 420.378Z" fill="white"></path><path d="M1379.05 420.378V303.958C1379.05 298.021 1382.23 294.84 1388.16 294.84H1399.52C1405.45 294.84 1408.63 298.021 1408.63 303.958V420.378C1408.63 426.316 1405.45 429.492 1399.52 429.492H1388.16C1382.23 429.492 1379.05 426.311 1379.05 420.378Z" fill="white"></path><path d="M1467.93 362.171C1467.93 308.177 1483.09 292.232 1525.58 292.232C1568.06 292.232 1583.29 308.177 1583.29 362.171C1583.29 416.165 1568.14 432.11 1525.58 432.11C1483.02 432.11 1467.93 416.165 1467.93 362.171ZM1551.93 362.171C1551.93 326.546 1545.85 316.275 1525.58 316.275C1505.31 316.275 1499.22 326.546 1499.22 362.171C1499.22 397.796 1505.31 408.066 1525.58 408.066C1545.85 408.066 1551.93 397.796 1551.93 362.171Z" fill="white"></path><path d="M1642.38 420.378V307.935C1642.38 299.387 1646.92 294.84 1655.47 294.84H1667.89C1675.27 294.84 1679.9 297.679 1683.35 304.178L1717.46 373.482C1719.88 378.337 1722.18 383.152 1724.3 388.158C1724.96 389.558 1725.5 390.144 1726.55 390.144C1727.6 390.144 1728.07 388.939 1727.99 387.226C1727.84 382.533 1727.77 377.722 1727.77 372.95L1727.81 303.958C1727.81 298.021 1730.99 294.84 1736.93 294.84H1746.94C1752.88 294.84 1756.06 298.021 1756.06 303.958V416.402C1756.06 424.949 1751.51 429.497 1742.96 429.497H1730.42C1723.04 429.497 1718.41 426.657 1714.96 420.158L1680.16 349.781C1677.89 345.273 1675.85 340.613 1673.89 335.876C1673.31 334.476 1672.84 333.817 1671.71 333.817C1670.77 333.817 1670.35 334.793 1670.35 336.432C1670.5 341.36 1670.57 346.488 1670.57 351.342L1670.81 420.383C1670.81 426.32 1667.63 429.497 1661.7 429.497H1651.49C1645.55 429.497 1642.37 426.316 1642.37 420.383L1642.38 420.378Z" fill="white"></path><path d="M1824.36 428.685C1818.51 427.602 1815.94 424.069 1816.41 418.405L1816.76 414.414C1817.23 408.672 1820.6 405.642 1826.73 405.837C1845.69 406.227 1854.91 406.422 1862.43 406.422C1878.04 406.422 1882.24 402.475 1882.24 393.415C1882.24 385.307 1878.51 381.526 1869.5 378.554L1842.53 368.987C1821.98 361.61 1814.5 347.988 1814.5 329.585C1814.5 301.088 1828.74 292.35 1863.49 292.35C1874.31 292.35 1887.37 293.013 1899.92 295.579C1905.39 296.741 1907.8 300.463 1907.26 306.054L1906.99 309.089C1906.52 314.831 1903.22 317.861 1897.48 317.666C1887.22 317.354 1874.58 317.232 1863.7 317.232C1849.31 317.232 1844.2 319.276 1844.2 329.561C1844.2 337.43 1848.16 341.524 1858.29 344.797L1883.75 353.521C1905.36 361.137 1912.21 375.032 1912.21 393.191C1912.21 421.42 1899.02 431.988 1862.3 431.988C1854.93 431.988 1841 431.597 1824.36 428.68L1824.36 428.685Z" fill="white"></path></svg> 