<?xml version="1.0" encoding="UTF-8"?> <svg xmlns="http://www.w3.org/2000/svg" width="2266" height="374" viewBox="0 0 2266 374" fill="none"><g clip-path="url(#clip0_318_114)"><path d="M0 202.487V52.5282C0 42.1053 6.60015 35.5049 17.2786 35.5049H40.4087C52.3481 35.5049 56.6825 38.5588 61.7656 48.4694L87.1811 98.7905L112.597 48.4694C117.68 38.5588 122.251 35.5049 133.954 35.5049H155.547C166.225 35.5049 172.826 42.1053 172.826 52.5282V202.487C172.826 209.343 168.767 213.422 162.147 213.422H137.244C130.644 213.422 126.565 209.363 126.565 202.487V108.445L100.894 159.022C96.8351 166.903 93.0129 169.701 86.1566 169.701C79.8126 169.701 75.4782 166.903 71.4196 159.022L46.2602 109.213V202.487C46.2602 209.343 42.2016 213.422 35.5817 213.422H10.6785C4.0783 213.422 0 209.363 0 202.487Z" fill="#4C85BC"></path><path d="M197.729 201.738V47.2082C197.729 39.8393 202.299 35.5244 209.412 35.5244H239.142C246.511 35.5244 250.825 39.8393 250.825 47.2082V201.738C250.825 209.107 246.511 213.422 239.142 213.422H209.412C202.299 213.422 197.729 209.107 197.729 201.738Z" fill="#4C85BC"></path><path d="M268.636 167.671V160.815C268.636 156.756 271.178 153.958 275 153.958H312.099C315.901 153.958 317.95 156.5 317.95 160.322V166.43C317.95 176.341 323.801 180.656 340.568 180.656C357.334 180.656 362.673 176.341 362.673 165.918V162.608C362.673 154.983 358.615 152.441 349.453 150.156L308.789 140.245C281.088 133.388 268.38 121.192 268.38 93.7265V87.6186C268.38 53.0598 293.027 31.958 341.06 31.958C389.094 31.958 411.968 48.7252 411.968 81.0182V87.6186C411.968 91.441 409.426 94.2191 405.604 94.2191H368.761C364.703 94.2191 362.654 91.9336 362.654 88.1112V82.2594C362.654 72.3489 357.314 68.2901 341.297 68.2901C325.279 68.2901 320.196 72.3489 320.196 82.7717V86.0818C320.196 93.7068 324.511 96.5046 333.416 98.7902L374.081 108.701C401.782 115.557 414.49 127.517 414.49 154.963V161.327C414.49 195.886 389.074 216.988 340.785 216.988C292.495 216.988 268.597 200.221 268.597 167.671H268.636Z" fill="#4C85BC"></path><path d="M423.414 167.671V160.815C423.414 156.756 425.956 153.958 429.778 153.958H466.877C470.679 153.958 472.728 156.5 472.728 160.322V166.43C472.728 176.341 478.58 180.656 495.346 180.656C512.113 180.656 517.452 176.341 517.452 165.918V162.608C517.452 154.983 513.393 152.441 504.232 150.156L463.567 140.245C435.866 133.388 423.158 121.192 423.158 93.7265V87.6186C423.158 53.0598 447.805 31.958 495.839 31.958C543.872 31.958 566.746 48.7252 566.746 81.0182V87.6186C566.746 91.441 564.204 94.2191 560.382 94.2191H523.54C519.481 94.2191 517.432 91.9336 517.432 88.1112V82.2594C517.432 72.3489 512.093 68.2901 496.075 68.2901C480.057 68.2901 474.974 72.3489 474.974 82.7717V86.0818C474.974 93.7068 479.289 96.5046 488.194 98.7902L528.859 108.701C556.56 115.557 569.268 127.517 569.268 154.963V161.327C569.268 195.886 543.852 216.988 495.563 216.988C447.273 216.988 423.375 200.221 423.375 167.671H423.414Z" fill="#4C85BC"></path><path d="M586.33 201.738V47.2082C586.33 39.8393 590.901 35.5244 598.013 35.5244H627.744C635.112 35.5244 639.427 39.8393 639.427 47.2082V201.738C639.427 209.107 635.112 213.422 627.744 213.422H598.013C590.901 213.422 586.33 209.107 586.33 201.738Z" fill="#4C85BC"></path><path d="M814.794 92.4458V156.5C814.794 195.886 784.552 216.988 737.523 216.988C690.495 216.988 660.016 195.886 660.016 156.5V92.4458C660.016 53.0598 690.77 31.958 737.523 31.958C784.276 31.958 814.794 53.0598 814.794 92.4458ZM737.543 178.094C752.792 178.094 760.929 171.238 760.929 158.785V90.1603C760.929 77.7081 753.048 70.8515 737.543 70.8515C722.037 70.8515 714.157 77.7081 714.157 90.1603V158.785C714.157 171.238 722.037 178.094 737.543 178.094Z" fill="#4C85BC"></path><path d="M834.634 202.487V52.5282C834.634 42.1053 840.998 35.5049 851.656 35.5049H874.274C886.214 35.5049 890.548 38.5588 896.636 50.4988L939.074 132.857V46.44C939.074 39.5834 943.133 35.5049 949.752 35.5049H975.68C982.28 35.5049 986.359 39.5637 986.359 46.44V196.399C986.359 206.821 980.015 213.422 969.336 213.422H947.723C935.784 213.422 931.449 210.112 925.361 198.428L881.899 115.577V202.506C881.899 209.363 877.84 213.442 871.221 213.442H845.293C838.693 213.442 834.614 209.383 834.614 202.506L834.634 202.487Z" fill="#4C85BC"></path><path d="M1047.1 157.249V92.4458C1047.1 53.2962 1077.6 31.958 1123.6 31.958C1169.61 31.958 1196.28 50.5181 1196.28 85.3331V89.648C1196.28 93.4507 1193.49 96.7608 1189.43 96.7608H1151.56C1147.76 96.7608 1145.22 93.963 1145.22 90.1603V86.5941C1145.22 75.659 1138.62 70.3195 1123.37 70.3195C1108.12 70.3195 1100.75 76.92 1100.75 89.3919V159.278C1100.75 172.242 1108.89 179.355 1124.88 179.355C1140.88 179.355 1146.48 173.76 1146.48 162.588V154.451H1132C1124.37 154.451 1119.8 149.88 1119.8 142.511V127.517C1119.8 119.892 1124.37 115.321 1132 115.321H1183.85C1192.24 115.321 1196.56 119.124 1196.56 128.029V163.613C1196.56 198.428 1168.09 216.988 1124.63 216.988C1077.62 216.988 1047.12 196.142 1047.12 157.268L1047.1 157.249Z" fill="#4C85BC"></path><path d="M1320.82 203.255L1290.32 156.481C1285.75 149.368 1284.47 145.289 1284.47 139.201V135.891C1284.47 126.985 1288.27 122.927 1296.15 122.927H1299.95C1311.64 122.927 1317.23 117.587 1317.23 105.903V90.3971C1317.23 78.7133 1311.64 73.3738 1299.95 73.3738H1274.54V201.718C1274.54 209.087 1269.97 213.402 1262.86 213.402H1233.13C1225.76 213.402 1221.44 209.087 1221.44 201.718V51.5233C1221.44 41.8689 1227.81 35.5049 1237.46 35.5049H1303.54C1347.77 35.5049 1370.63 52.272 1370.63 85.3138V100.308C1370.63 121.409 1362.23 135.379 1343.69 142.748L1366.82 175.533C1375.96 188.498 1372.42 204.26 1358.43 212.634C1345.47 220.259 1329.45 216.456 1320.82 203.235V203.255Z" fill="#4C85BC"></path><path d="M1626.81 202.487V52.5282C1626.81 42.1053 1633.17 35.5049 1643.83 35.5049H1666.45C1678.39 35.5049 1682.72 38.5588 1688.81 50.4988L1731.25 132.857V46.44C1731.25 39.5834 1735.31 35.5049 1741.93 35.5049H1767.86C1774.46 35.5049 1778.53 39.5637 1778.53 46.44V196.399C1778.53 206.821 1772.19 213.422 1761.51 213.422H1739.92C1727.98 213.422 1723.64 210.112 1717.56 198.428L1674.09 115.577V202.506C1674.09 209.363 1670.04 213.442 1663.42 213.442H1637.49C1630.89 213.442 1626.81 209.383 1626.81 202.506V202.487Z" fill="#4C85BC"></path><path d="M1843.35 201.738V75.935H1806.51C1799.65 75.935 1796.34 72.6249 1796.34 65.7683V45.6911C1796.34 38.8345 1799.65 35.5244 1806.51 35.5244H1933.33C1940.19 35.5244 1943.75 38.8345 1943.75 45.6911V65.7683C1943.75 72.6249 1940.19 75.935 1933.33 75.935H1896.47V201.738C1896.47 209.107 1892.16 213.422 1884.79 213.422H1855.06C1847.94 213.422 1843.37 209.107 1843.37 201.738H1843.35Z" fill="#4C85BC"></path><path d="M1961.53 198.172V50.7549C1961.53 41.6128 1967.38 35.5049 1976.78 35.5049H2081.75C2088.35 35.5049 2091.91 38.815 2091.91 45.6716V64.9804C2091.91 71.837 2088.35 75.1471 2081.75 75.1471H2013.64V103.362H2060.65C2073.1 103.362 2080.72 110.474 2080.72 123.183V123.951C2080.72 136.403 2073.1 143.516 2060.65 143.516H2013.64V173.76H2081.75C2088.35 173.76 2091.91 177.07 2091.91 183.927V203.235C2091.91 210.092 2088.35 213.402 2081.75 213.402H1976.78C1967.38 213.402 1961.53 207.294 1961.53 198.152V198.172Z" fill="#4C85BC"></path><path d="M2114.02 198.172V50.7549C2114.02 41.6128 2119.87 35.5049 2129.27 35.5049H2185.18C2236.78 35.5049 2266 58.8922 2266 100.82V148.087C2266 190.015 2236.78 213.402 2185.18 213.402H2129.27C2119.87 213.402 2114.02 207.294 2114.02 198.152V198.172ZM2185.95 175.041C2203.23 175.041 2211.88 167.16 2211.88 150.648V98.2979C2211.88 81.7869 2203.23 73.9058 2185.95 73.9058H2167.14V175.06H2185.95V175.041Z" fill="#4C85BC"></path><path d="M1585.65 235.114C1560.75 208.161 1530.53 194.034 1494.57 194.014C1458.57 193.994 1428.37 208.161 1403.41 235.114C1403 233.203 1402.66 232.06 1402.48 230.898C1400.14 214.86 1399.71 198.703 1400.55 182.567C1401.81 158.332 1406.46 134.669 1414.64 111.735C1424.12 85.1556 1437.55 60.7831 1455.15 38.775C1466.24 24.8845 1478.43 11.9988 1492.44 0.925775C1494.22 -0.47313 1495.24 -0.197289 1496.82 1.1031C1508.81 10.9348 1519.59 21.8896 1529.62 33.7508C1543.23 49.8874 1554.62 67.3442 1563.76 86.318C1576.37 112.444 1584.33 139.91 1587.35 168.794C1589.51 189.502 1589.26 210.151 1586.58 230.799C1586.42 231.981 1586.09 233.144 1585.65 235.114ZM1544.85 160.972C1544.55 158.884 1544.46 157.879 1544.26 156.894C1540.42 137.467 1534.27 118.867 1525.32 101.154C1517.64 85.9437 1508.22 71.9349 1497.33 58.8916C1494.87 55.9362 1494.2 55.9165 1491.87 58.8719C1487.63 64.2705 1483.2 69.5312 1479.26 75.1465C1462.44 99.2037 1451.19 125.684 1445.26 154.431C1444.88 156.283 1444.65 158.155 1444.23 160.854C1477.96 150.569 1511.12 150.372 1544.87 160.972H1544.85Z" fill="#F0B258"></path><path d="M1503.99 292.903C1503.99 269.299 1503.97 245.695 1503.99 222.091C1503.99 217.284 1506.71 213.777 1510.96 212.634C1515.08 211.531 1519.65 213.146 1521.66 216.89C1522.65 218.722 1523.3 221.008 1523.3 223.076C1523.37 269.713 1523.37 316.35 1523.33 362.967C1523.33 368.582 1520.79 372.188 1516.28 373.567C1512.22 374.808 1507.77 373.409 1505.58 369.508C1504.48 367.558 1504.03 364.977 1504.03 362.671C1503.91 339.422 1503.97 316.153 1503.97 292.903H1503.99Z" fill="#81295E"></path><path d="M1485.07 278.953C1485.07 297.848 1485.11 316.723 1485.05 335.619C1485.03 343.559 1477.86 348.327 1471.22 344.642C1469.13 343.48 1467.52 341.037 1466.38 338.81C1465.55 337.215 1465.71 335.027 1465.69 333.097C1465.65 297.04 1465.67 260.984 1465.69 224.928C1465.69 223.45 1465.69 221.933 1465.96 220.495C1466.95 215.195 1471.34 211.885 1476.58 212.397C1481.49 212.87 1485.03 216.712 1485.03 221.953C1485.09 240.946 1485.05 259.96 1485.05 278.953H1485.07Z" fill="#81295E"></path><path d="M1427.76 274.659C1427.76 262.738 1427.76 250.818 1427.76 238.898C1427.76 232.179 1431.5 228.081 1437.49 228.101C1443.4 228.12 1447.11 232.278 1447.11 239.036C1447.13 262.994 1447.13 286.933 1447.11 310.892C1447.11 317.414 1443.05 321.886 1437.34 321.827C1431.58 321.768 1427.74 317.374 1427.74 310.754C1427.74 298.716 1427.74 286.697 1427.74 274.659H1427.76Z" fill="#81295E"></path><path d="M1561.28 264.295C1561.28 272.767 1561.3 281.219 1561.28 289.692C1561.26 295.918 1557.24 300.351 1551.67 300.41C1546.19 300.469 1541.95 295.918 1541.93 289.77C1541.89 272.609 1541.89 255.468 1541.93 238.307C1541.93 232.159 1545.85 228.12 1551.57 228.12C1557.34 228.12 1561.22 232.1 1561.26 238.228C1561.32 246.917 1561.26 255.606 1561.26 264.314L1561.28 264.295Z" fill="#81295E"></path></g><defs><clipPath id="clip0_318_114"><rect width="2266" height="374" fill="white"></rect></clipPath></defs></svg> 