<svg width="586" height="569" viewBox="0 0 586 569" fill="none" xmlns="http://www.w3.org/2000/svg">
<g clip-path="url(#clip0_2411_1693)">
<path opacity="0.2" d="M584.111 0.280273H584.541V568.06H584.111V568.78L-56.9307 568.779V568.06H-57.5V0.280273H-56.9307V0H584.111V0.280273ZM-56.5 567.779H-33.0801V544.358H-56.5V567.779ZM-32.0801 567.779H-8.6582V544.358H-32.0801V567.779ZM-7.6582 567.779H16.7793V544.358H-7.6582V567.779ZM17.7793 567.779H41.1992V544.358H17.7793V567.779ZM42.1992 567.779H65.6211V544.358H42.1992V567.779ZM66.6211 567.779H90.041V544.358H66.6211V567.779ZM91.041 567.779H114.463V544.358H91.041V567.779ZM115.463 567.779H139.9V544.358H115.463V567.779ZM140.9 567.779H164.32V544.358H140.9V567.779ZM165.32 567.779H188.742V544.358H165.32V567.779ZM189.742 567.779H213.162V544.358H189.742V567.779ZM214.162 567.779H238.6V544.358H214.162V567.779ZM239.6 567.779H263.021V544.358H239.6V567.779ZM264.021 567.779H287.441V544.358H264.021V567.779ZM288.441 567.779H311.861V544.358H288.441V567.779ZM312.861 567.779H337.301V544.358H312.861V567.779ZM338.301 567.779H361.721V544.358H338.301V567.779ZM362.721 567.779H386.143V544.358H362.721V567.779ZM387.143 567.779H410.562V544.358H387.143V567.779ZM411.562 567.779H436V544.358H411.562V567.779ZM437 567.779H460.422V544.358H437V567.779ZM461.422 567.779H484.842V544.358H461.422V567.779ZM485.842 567.779H509.262V544.358H485.842V567.779ZM510.262 567.779H534.701V544.358H510.262V567.779ZM535.701 567.779H559.121V544.358H535.701V567.779ZM560.121 567.779H583.541L583.54 544.358H560.121V567.779ZM-56.5 543.358H-33.0801V518.921H-56.5V543.358ZM-32.0801 543.358H-8.6582V518.921H-32.0801V543.358ZM-7.6582 543.358H16.7793V518.921H-7.6582V543.358ZM17.7793 543.358H41.1992V518.921H17.7793V543.358ZM42.1992 543.358H65.6211V518.921H42.1992V543.358ZM66.6211 543.358H90.041V518.921H66.6211V543.358ZM91.041 543.358H114.463V518.921H91.041V543.358ZM115.463 543.358H139.9V518.921H115.463V543.358ZM140.9 543.358H164.32V518.921H140.9V543.358ZM165.32 543.358H188.742V518.921H165.32V543.358ZM189.742 543.358H213.162V518.921H189.742V543.358ZM214.162 543.358H238.6V518.921H214.162V543.358ZM239.6 543.358H263.021V518.921H239.6V543.358ZM264.021 543.358H287.441V518.921H264.021V543.358ZM288.441 543.358H311.861V518.921H288.441V543.358ZM312.861 543.358H337.301V518.921H312.861V543.358ZM338.301 543.358H361.721V518.921H338.301V543.358ZM362.721 543.358H386.143V518.921H362.721V543.358ZM387.143 543.358H410.562V518.921H387.143V543.358ZM411.562 543.358H436V518.921H411.562V543.358ZM437 543.358H460.422V518.921H437V543.358ZM461.422 543.358H484.842V518.921H461.422V543.358ZM485.842 543.358H509.262V518.921H485.842V543.358ZM510.262 543.358H534.701V518.921H510.262V543.358ZM535.701 543.358H559.121V518.921H535.701V543.358ZM560.121 543.358H583.54L583.541 518.921H560.121V543.358ZM-56.5 517.921H-33.0801V494.5H-56.5V517.921ZM-32.0801 517.921H-8.6582V494.5H-32.0801V517.921ZM-7.6582 517.921H16.7793V494.5H-7.6582V517.921ZM17.7793 517.921H41.1992V494.5H17.7793V517.921ZM42.1992 517.921H65.6211V494.5H42.1992V517.921ZM66.6211 517.921H90.041V494.5H66.6211V517.921ZM91.041 517.921H114.463V494.5H91.041V517.921ZM115.463 517.921H139.9V494.5H115.463V517.921ZM140.9 517.921H164.32V494.5H140.9V517.921ZM165.32 517.921H188.742V494.5H165.32V517.921ZM189.742 517.921H213.162L213.161 494.5H189.742V517.921ZM214.162 517.921H238.6L238.599 494.5H214.161L214.162 517.921ZM239.6 517.921H263.021V494.5H239.599L239.6 517.921ZM264.021 517.921H287.441V494.5H264.021V517.921ZM288.441 517.921H311.861V494.5H288.441V517.921ZM312.861 517.921H337.301V494.5H312.861V517.921ZM338.301 517.921H361.721V494.5H338.301V517.921ZM362.721 517.921H386.143V494.5H362.721V517.921ZM387.143 517.921H410.562V494.5H387.143V517.921ZM411.562 517.921H436V494.5H411.562V517.921ZM437 517.921H460.422V494.5H437V517.921ZM461.422 517.921H484.842V494.5H461.422V517.921ZM485.842 517.921H509.262L509.261 494.5H485.842V517.921ZM510.262 517.921H534.701V494.5H510.261L510.262 517.921ZM535.701 517.921H559.121L559.12 494.5H535.701V517.921ZM560.121 517.921H583.541V494.5H560.12L560.121 517.921ZM560.12 493.5H583.541V470.079H560.12V493.5ZM535.701 493.5H559.12V470.079H535.701V493.5ZM510.261 493.5H534.701V470.079H510.261V493.5ZM485.842 493.5H509.261V470.079H485.842V493.5ZM461.422 493.5H484.842V470.079H461.422V493.5ZM437 493.5H460.422V470.079H437V493.5ZM411.562 493.5H436V470.079H411.562V493.5ZM387.143 493.5H410.562V470.079H387.143V493.5ZM362.721 493.5H386.143V470.079H362.721V493.5ZM338.301 493.5H361.721V470.079H338.301V493.5ZM312.861 493.5H337.301V470.079H312.861V493.5ZM288.441 493.5H311.861V470.079H288.441V493.5ZM264.021 493.5H287.441V470.079H264.021V493.5ZM239.599 493.5H263.021V470.079H239.599V493.5ZM214.161 493.5H238.599V470.079H214.161V493.5ZM189.742 493.5H213.161V470.079H189.742V493.5ZM165.32 493.5H188.742V470.079H165.32V493.5ZM140.9 493.5H164.32V470.079H140.9V493.5ZM115.463 493.5H139.9V470.079H115.463V493.5ZM91.041 493.5H114.463V470.079H91.041V493.5ZM66.6211 493.5H90.041V470.079H66.6211V493.5ZM42.1992 493.5H65.6211V470.079H42.1992V493.5ZM17.7793 493.5H41.1992V470.079H17.7793V493.5ZM-7.6582 493.5H16.7793V470.079H-7.6582V493.5ZM-32.0801 493.5H-8.6582V470.079H-32.0801V493.5ZM-56.5 493.5H-33.0801V470.079H-56.5V493.5ZM-56.5 469.079H-33.0801V445.659H-56.5V469.079ZM-32.0801 469.079H-8.6582V445.659H-32.0801V469.079ZM-7.6582 469.079H16.7793V445.659H-7.6582V469.079ZM17.7793 469.079H41.1992V445.659H17.7793V469.079ZM42.1992 469.079H65.6211V445.659H42.1992V469.079ZM66.6211 469.079H90.041V445.659H66.6211V469.079ZM91.041 469.079H114.463V445.659H91.041V469.079ZM115.463 469.079H139.9V445.659H115.463V469.079ZM140.9 469.079H164.32V445.659H140.9V469.079ZM165.32 469.079H188.742V445.659H165.32V469.079ZM189.742 469.079H213.161V445.659H189.742V469.079ZM214.161 469.079H238.599V445.659H214.161V469.079ZM239.599 469.079H263.021V445.659H239.599V469.079ZM264.021 469.079H287.441V445.659H264.021V469.079ZM288.441 469.079H311.861V445.659H288.441V469.079ZM312.861 469.079H337.301V445.659H312.861V469.079ZM338.301 469.079H361.721V445.659H338.301V469.079ZM362.721 469.079H386.143V445.659H362.721V469.079ZM387.143 469.079H410.562V445.659H387.143V469.079ZM411.562 469.079H436V445.659H411.562V469.079ZM437 469.079H460.422V445.659H437V469.079ZM461.422 469.079H484.842V445.659H461.422V469.079ZM485.842 469.079H509.261V445.659H485.842V469.079ZM510.261 469.079H534.701V445.659H510.261V469.079ZM535.701 469.079H559.12V445.659H535.701V469.079ZM560.12 469.079H583.541V445.659H560.12V469.079ZM-56.5 444.659H-33.0801V420.221H-56.5V444.659ZM-32.0801 444.659H-8.6582V420.221H-32.0801V444.659ZM-7.6582 444.659H16.7793V420.221H-7.6582V444.659ZM17.7793 444.659H41.1992V420.221H17.7793V444.659ZM42.1992 444.659H65.6211V420.221H42.1992V444.659ZM66.6211 444.659H90.041V420.221H66.6211V444.659ZM91.041 444.659H114.463V420.221H91.041V444.659ZM115.463 444.659H139.9V420.221H115.463V444.659ZM140.9 444.659H164.32V420.221H140.9V444.659ZM165.32 444.659H188.742V420.221H165.32V444.659ZM189.742 444.659H213.161L213.162 420.221H189.742V444.659ZM214.161 444.659H238.599L238.6 420.221H214.162L214.161 444.659ZM239.599 444.659H263.021V420.221H239.6L239.599 444.659ZM264.021 444.659H287.441V420.221H264.021V444.659ZM288.441 444.659H311.861V420.221H288.441V444.659ZM312.861 444.659H337.301V420.221H312.861V444.659ZM338.301 444.659H361.721V420.221H338.301V444.659ZM362.721 444.659H386.143V420.221H362.721V444.659ZM387.143 444.659H410.562V420.221H387.143V444.659ZM411.562 444.659H436V420.221H411.562V444.659ZM437 444.659H460.422V420.221H437V444.659ZM461.422 444.659H484.842V420.221H461.422V444.659ZM485.842 444.659H509.261L509.262 420.221H485.842V444.659ZM510.261 444.659H534.701V420.221H510.262L510.261 444.659ZM535.701 444.659H559.12L559.121 420.221H535.701V444.659ZM560.12 444.659H583.541V420.221H560.121L560.12 444.659ZM-56.5 419.221H-33.0801V395.8H-56.5V419.221ZM-32.0801 419.221H-8.6582V395.8H-32.0801V419.221ZM-7.6582 419.221H16.7793V395.8H-7.6582V419.221ZM17.7793 419.221H41.1992V395.8H17.7793V419.221ZM42.1992 419.221H65.6211V395.8H42.1992V419.221ZM66.6211 419.221H90.041V395.8H66.6211V419.221ZM91.041 419.221H114.463V395.8H91.041V419.221ZM115.463 419.221H139.9V395.8H115.463V419.221ZM140.9 419.221H164.32V395.8H140.9V419.221ZM165.32 419.221H188.742V395.8H165.32V419.221ZM189.742 419.221H213.162V395.8H189.742V419.221ZM214.162 419.221H238.6V395.8H214.162V419.221ZM239.6 419.221H263.021V395.8H239.6V419.221ZM264.021 419.221H287.441V395.8H264.021V419.221ZM288.441 419.221H311.861L311.86 395.8H288.441V419.221ZM312.861 419.221H337.301V395.8H312.86L312.861 419.221ZM338.301 419.221H361.721L361.72 395.8H338.301V419.221ZM362.721 419.221H386.143L386.142 395.8H362.72L362.721 419.221ZM387.143 419.221H410.562V395.8H387.142L387.143 419.221ZM411.562 419.221H436V395.8H411.562V419.221ZM437 419.221H460.422V395.8H437V419.221ZM461.422 419.221H484.842V395.8H461.422V419.221ZM485.842 419.221H509.262V395.8H485.842V419.221ZM510.262 419.221H534.701V395.8H510.262V419.221ZM535.701 419.221H559.121V395.8H535.701V419.221ZM560.121 419.221H583.541V395.8H560.121V419.221ZM-56.5 394.8H-33.0801V371.379H-56.5V394.8ZM-32.0801 394.8H-8.6582V371.379H-32.0801V394.8ZM-7.6582 394.8H16.7793V371.379H-7.6582V394.8ZM17.7793 394.8H41.1992V371.379H17.7793V394.8ZM42.1992 394.8H65.6211V371.379H42.1992V394.8ZM66.6211 394.8H90.041V371.379H66.6211V394.8ZM91.041 394.8H114.463V371.379H91.041V394.8ZM115.463 394.8H139.9V371.379H115.463V394.8ZM140.9 394.8H164.32V371.379H140.9V394.8ZM165.32 394.8H188.742V371.379H165.32V394.8ZM189.742 394.8H213.162V371.379H189.742V394.8ZM214.162 394.8H238.6V371.379H214.162V394.8ZM239.6 394.8H263.021V371.379H239.6V394.8ZM264.021 394.8H287.441V371.379H264.021V394.8ZM288.441 394.8H311.86V371.379H288.441V394.8ZM312.86 394.8H337.301V371.379H312.86V394.8ZM338.301 394.8H361.72V371.379H338.301V394.8ZM362.72 394.8H386.142V371.379H362.72V394.8ZM387.142 394.8H410.562V371.379H387.142V394.8ZM411.562 394.8H436V371.379H411.562V394.8ZM437 394.8H460.422V371.379H437V394.8ZM461.422 394.8H484.842V371.379H461.422V394.8ZM485.842 394.8H509.262V371.379H485.842V394.8ZM510.262 394.8H534.701V371.379H510.262V394.8ZM535.701 394.8H559.121V371.379H535.701V394.8ZM560.121 394.8H583.541V371.379H560.121V394.8ZM-56.5 370.379H-33.0801V346.959H-56.5V370.379ZM-32.0801 370.379H-8.6582V346.959H-32.0801V370.379ZM-7.6582 370.379H16.7793V346.959H-7.6582V370.379ZM17.7793 370.379H41.1992V346.959H17.7793V370.379ZM42.1992 370.379H65.6211V346.959H42.1992V370.379ZM66.6211 370.379H90.041V346.959H66.6211V370.379ZM91.041 370.379H114.463V346.959H91.041V370.379ZM115.463 370.379H139.9V346.959H115.463V370.379ZM140.9 370.379H164.32V346.959H140.9V370.379ZM165.32 370.379H188.742V346.959H165.32V370.379ZM189.742 370.379H213.162V346.959H189.742V370.379ZM214.162 370.379H238.6V346.959H214.162V370.379ZM239.6 370.379H263.021V346.959H239.6V370.379ZM264.021 370.379H287.441V346.959H264.021V370.379ZM288.441 370.379H311.86V346.959H288.441V370.379ZM312.86 370.379H337.301V346.959H312.86V370.379ZM338.301 370.379H361.72V346.959H338.301V370.379ZM362.72 370.379H386.142V346.959H362.72V370.379ZM387.142 370.379H410.562V346.959H387.142V370.379ZM411.562 370.379H436V346.959H411.562V370.379ZM437 370.379H460.422V346.959H437V370.379ZM461.422 370.379H484.842V346.959H461.422V370.379ZM485.842 370.379H509.262V346.959H485.842V370.379ZM510.262 370.379H534.701V346.959H510.262V370.379ZM535.701 370.379H559.121V346.959H535.701V370.379ZM560.121 370.379H583.541V346.959H560.121V370.379ZM-56.5 345.959H-33.0801V322.538H-56.5V345.959ZM-32.0801 345.959H-8.6582V322.538H-32.0801V345.959ZM-7.6582 345.959H16.7793V322.538H-7.6582V345.959ZM17.7793 345.959H41.1992V322.538H17.7793V345.959ZM42.1992 345.959H65.6211V322.538H42.1992V345.959ZM66.6211 345.959H90.041V322.538H66.6211V345.959ZM91.041 345.959H114.463V322.538H91.041V345.959ZM115.463 345.959H139.9V322.538H115.463V345.959ZM140.9 345.959H164.32V322.538H140.9V345.959ZM165.32 345.959H188.742V322.538H165.32V345.959ZM189.742 345.959H213.162V322.538H189.742V345.959ZM214.162 345.959H238.6V322.538H214.162V345.959ZM239.6 345.959H263.021V322.538H239.6V345.959ZM264.021 345.959H287.441V322.538H264.021V345.959ZM288.441 345.959H311.861V322.538H288.441V345.959ZM312.861 345.959H337.301V322.538H312.861V345.959ZM338.301 345.959H361.721V322.538H338.301V345.959ZM362.721 345.959H386.143V322.538H362.721V345.959ZM387.143 345.959H410.562V322.538H387.143V345.959ZM411.562 345.959H436V322.538H411.562V345.959ZM437 345.959H460.422V322.538H437V345.959ZM461.422 345.959H484.842V322.538H461.422V345.959ZM485.842 345.959H509.262V322.538H485.842V345.959ZM510.262 345.959H534.701V322.538H510.262V345.959ZM535.701 345.959H559.121V322.538H535.701V345.959ZM560.121 345.959H583.541V322.538H560.121V345.959ZM-56.5 321.538H-33.0801V297.1H-56.5V321.538ZM-32.0801 321.538H-8.6582V297.1H-32.0801V321.538ZM-7.6582 321.538H16.7793V297.1H-7.6582V321.538ZM17.7793 321.538H41.1992V297.1H17.7793V321.538ZM42.1992 321.538H65.6211V297.1H42.1992V321.538ZM66.6211 321.538H90.041V297.1H66.6211V321.538ZM91.041 321.538H114.463V297.1H91.041V321.538ZM115.463 321.538H139.9V297.1H115.463V321.538ZM140.9 321.538H164.32V297.1H140.9V321.538ZM165.32 321.538H188.742V297.1H165.32V321.538ZM189.742 321.538H213.162L213.161 297.1H189.742V321.538ZM214.162 321.538H238.6L238.599 297.1H214.161L214.162 321.538ZM239.6 321.538H263.021V297.1H239.599L239.6 321.538ZM264.021 321.538H287.441V297.1H264.021V321.538ZM288.441 321.538H311.861V297.1H288.441V321.538ZM312.861 321.538H337.301V297.1H312.861V321.538ZM338.301 321.538H361.721V297.1H338.301V321.538ZM362.721 321.538H386.143V297.1H362.721V321.538ZM387.143 321.538H410.562V297.1H387.143V321.538ZM411.562 321.538H436V297.1H411.562V321.538ZM437 321.538H460.422V297.1H437V321.538ZM461.422 321.538H484.842V297.1H461.422V321.538ZM485.842 321.538H509.262L509.261 297.1H485.842V321.538ZM510.262 321.538H534.701V297.1H510.261L510.262 321.538ZM535.701 321.538H559.121L559.12 297.1H535.701V321.538ZM560.121 321.538H583.541L583.54 297.1H560.12L560.121 321.538ZM-56.5 296.1H-33.0801V272.68H-56.5V296.1ZM-32.0801 296.1H-8.6582V272.68H-32.0801V296.1ZM-7.6582 296.1H16.7793V272.68H-7.6582V296.1ZM17.7793 296.1H41.1992V272.68H17.7793V296.1ZM42.1992 296.1H65.6211V272.68H42.1992V296.1ZM66.6211 296.1H90.041V272.68H66.6211V296.1ZM91.041 296.1H114.463V272.68H91.041V296.1ZM115.463 296.1H139.9V272.68H115.463V296.1ZM140.9 296.1H164.32V272.68H140.9V296.1ZM165.32 296.1H188.742V272.68H165.32V296.1ZM189.742 296.1H213.161V272.68H189.742V296.1ZM214.161 296.1H238.599V272.68H214.161V296.1ZM239.599 296.1H263.021V272.68H239.599V296.1ZM264.021 296.1H287.441V272.68H264.021V296.1ZM288.441 296.1H311.861V272.68H288.441V296.1ZM312.861 296.1H337.301V272.68H312.861V296.1ZM338.301 296.1H361.721V272.68H338.301V296.1ZM362.721 296.1H386.143V272.68H362.721V296.1ZM387.143 296.1H410.562V272.68H387.143V296.1ZM411.562 296.1H436V272.68H411.562V296.1ZM437 296.1H460.422V272.68H437V296.1ZM461.422 296.1H484.842V272.68H461.422V296.1ZM485.842 296.1H509.261V272.68H485.842V296.1ZM510.261 296.1H534.701V272.68H510.261V296.1ZM535.701 296.1H559.12V272.68H535.701V296.1ZM560.12 296.1H583.54L583.541 272.68H560.12V296.1ZM-56.5 271.68H-33.0801V248.259H-56.5V271.68ZM-32.0801 271.68H-8.6582V248.259H-32.0801V271.68ZM-7.6582 271.68H16.7793V248.259H-7.6582V271.68ZM17.7793 271.68H41.1992V248.259H17.7793V271.68ZM42.1992 271.68H65.6211V248.259H42.1992V271.68ZM66.6211 271.68H90.041V248.259H66.6211V271.68ZM91.041 271.68H114.463V248.259H91.041V271.68ZM115.463 271.68H139.9V248.259H115.463V271.68ZM140.9 271.68H164.32V248.259H140.9V271.68ZM165.32 271.68H188.742V248.259H165.32V271.68ZM189.742 271.68H213.161V248.259H189.742V271.68ZM214.161 271.68H238.599V248.259H214.161V271.68ZM239.599 271.68H263.021V248.259H239.599V271.68ZM264.021 271.68H287.441V248.259H264.021V271.68ZM288.441 271.68H311.861V248.259H288.441V271.68ZM312.861 271.68H337.301V248.259H312.861V271.68ZM338.301 271.68H361.721V248.259H338.301V271.68ZM362.721 271.68H386.143V248.259H362.721V271.68ZM387.143 271.68H410.562V248.259H387.143V271.68ZM411.562 271.68H436V248.259H411.562V271.68ZM437 271.68H460.422V248.259H437V271.68ZM461.422 271.68H484.842V248.259H461.422V271.68ZM485.842 271.68H509.261V248.259H485.842V271.68ZM510.261 271.68H534.701V248.259H510.261V271.68ZM535.701 271.68H559.12V248.259H535.701V271.68ZM560.12 271.68H583.541V248.259H560.12V271.68ZM-56.5 247.259H-33.0801V223.838H-56.5V247.259ZM-32.0801 247.259H-8.6582V223.838H-32.0801V247.259ZM-7.6582 247.259H16.7793V223.838H-7.6582V247.259ZM17.7793 247.259H41.1992V223.838H17.7793V247.259ZM42.1992 247.259H65.6211V223.838H42.1992V247.259ZM66.6211 247.259H90.041V223.838H66.6211V247.259ZM91.041 247.259H114.463V223.838H91.041V247.259ZM115.463 247.259H139.9V223.838H115.463V247.259ZM140.9 247.259H164.32V223.838H140.9V247.259ZM165.32 247.259H188.742V223.838H165.32V247.259ZM189.742 247.259H213.161V223.838H189.742V247.259ZM214.161 247.259H238.599V223.838H214.161V247.259ZM239.599 247.259H263.021V223.838H239.599V247.259ZM264.021 247.259H287.441V223.838H264.021V247.259ZM288.441 247.259H311.861V223.838H288.441V247.259ZM312.861 247.259H337.301V223.838H312.861V247.259ZM338.301 247.259H361.721V223.838H338.301V247.259ZM362.721 247.259H386.143V223.838H362.721V247.259ZM387.143 247.259H410.562V223.838H387.143V247.259ZM411.562 247.259H436V223.838H411.562V247.259ZM437 247.259H460.422V223.838H437V247.259ZM461.422 247.259H484.842V223.838H461.422V247.259ZM485.842 247.259H509.261V223.838H485.842V247.259ZM510.261 247.259H534.701V223.838H510.261V247.259ZM535.701 247.259H559.12V223.838H535.701V247.259ZM560.12 247.259H583.541V223.838H560.12V247.259ZM-56.5 222.838H-33.0801V198.399H-56.5V222.838ZM-32.0801 222.838H-8.6582V198.399H-32.0801V222.838ZM-7.6582 222.838H16.7793V198.399H-7.6582V222.838ZM17.7793 222.838H41.1992V198.399H17.7793V222.838ZM42.1992 222.838H65.6211V198.399H42.1992V222.838ZM66.6211 222.838H90.041V198.399H66.6211V222.838ZM91.041 222.838H114.463V198.399H91.041V222.838ZM115.463 222.838H139.9V198.399H115.463V222.838ZM140.9 222.838H164.32V198.399H140.9V222.838ZM165.32 222.838H188.742V198.399H165.32V222.838ZM189.742 222.838H213.161V198.399H189.742V222.838ZM214.161 222.838H238.599V198.399H214.161V222.838ZM239.599 222.838H263.021V198.399H239.599V222.838ZM264.021 222.838H287.441V198.399H264.021V222.838ZM288.441 222.838H311.861V198.399H288.441V222.838ZM312.861 222.838H337.301V198.399H312.861V222.838ZM338.301 222.838H361.721V198.399H338.301V222.838ZM362.721 222.838H386.143V198.399H362.721V222.838ZM387.143 222.838H410.562V198.399H387.143V222.838ZM411.562 222.838H436V198.399H411.562V222.838ZM437 222.838H460.422V198.399H437V222.838ZM461.422 222.838H484.842V198.399H461.422V222.838ZM485.842 222.838H509.261V198.399H485.842V222.838ZM510.261 222.838H534.701V198.399H510.261V222.838ZM535.701 222.838H559.12V198.399H535.701V222.838ZM560.12 222.838H583.541L583.54 198.399H560.12V222.838ZM-56.5 197.399H-33.0801V173.979H-56.5V197.399ZM-32.0801 197.399H-8.6582V173.979H-32.0801V197.399ZM-7.6582 197.399H16.7793V173.979H-7.6582V197.399ZM17.7793 197.399H41.1992V173.979H17.7793V197.399ZM42.1992 197.399H65.6211V173.979H42.1992V197.399ZM66.6211 197.399H90.041V173.979H66.6211V197.399ZM91.041 197.399H114.463V173.979H91.041V197.399ZM115.463 197.399H139.9V173.979H115.463V197.399ZM140.9 197.399H164.32V173.979H140.9V197.399ZM165.32 197.399H188.742V173.979H165.32V197.399ZM189.742 197.399H213.161L213.162 173.979H189.742V197.399ZM214.161 197.399H238.599L238.6 173.979H214.162L214.161 197.399ZM239.599 197.399H263.021V173.979H239.6L239.599 197.399ZM264.021 197.399H287.441V173.979H264.021V197.399ZM288.441 197.399H311.861V173.979H288.441V197.399ZM312.861 197.399H337.301V173.979H312.861V197.399ZM338.301 197.399H361.721V173.979H338.301V197.399ZM362.721 197.399H386.143V173.979H362.721V197.399ZM387.143 197.399H410.562V173.979H387.143V197.399ZM411.562 197.399H436V173.979H411.562V197.399ZM437 197.399H460.422V173.979H437V197.399ZM461.422 197.399H484.842V173.979H461.422V197.399ZM485.842 197.399H509.261L509.262 173.979H485.842V197.399ZM510.261 197.399H534.701V173.979H510.262L510.261 197.399ZM535.701 197.399H559.12L559.121 173.979H535.701V197.399ZM560.12 197.399H583.54L583.541 173.979H560.121L560.12 197.399ZM-56.5 172.979H-33.0801V149.559H-56.5V172.979ZM-32.0801 172.979H-8.6582V149.559H-32.0801V172.979ZM-7.6582 172.979H16.7793V149.559H-7.6582V172.979ZM17.7793 172.979H41.1992V149.559H17.7793V172.979ZM42.1992 172.979H65.6211V149.559H42.1992V172.979ZM66.6211 172.979H90.041V149.559H66.6211V172.979ZM91.041 172.979H114.463V149.559H91.041V172.979ZM115.463 172.979H139.9V149.559H115.463V172.979ZM140.9 172.979H164.32V149.559H140.9V172.979ZM165.32 172.979H188.742V149.559H165.32V172.979ZM189.742 172.979H213.162V149.559H189.742V172.979ZM214.162 172.979H238.6V149.559H214.162V172.979ZM239.6 172.979H263.021V149.559H239.6V172.979ZM264.021 172.979H287.441V149.559H264.021V172.979ZM288.441 172.979H311.861V149.559H288.441V172.979ZM312.861 172.979H337.301V149.559H312.861V172.979ZM338.301 172.979H361.721V149.559H338.301V172.979ZM362.721 172.979H386.143V149.559H362.721V172.979ZM387.143 172.979H410.562V149.559H387.143V172.979ZM411.562 172.979H436V149.559H411.562V172.979ZM437 172.979H460.422V149.559H437V172.979ZM461.422 172.979H484.842V149.559H461.422V172.979ZM485.842 172.979H509.262V149.559H485.842V172.979ZM510.262 172.979H534.701V149.559H510.262V172.979ZM535.701 172.979H559.121V149.559H535.701V172.979ZM560.121 172.979H583.541V149.559H560.121V172.979ZM-56.5 148.559H-33.0801V125.138H-56.5V148.559ZM-32.0801 148.559H-8.6582V125.138H-32.0801V148.559ZM-7.6582 148.559H16.7793V125.138H-7.6582V148.559ZM17.7793 148.559H41.1992V125.138H17.7793V148.559ZM42.1992 148.559H65.6211V125.138H42.1992V148.559ZM66.6211 148.559H90.041V125.138H66.6211V148.559ZM91.041 148.559H114.463V125.138H91.041V148.559ZM115.463 148.559H139.9V125.138H115.463V148.559ZM140.9 148.559H164.32V125.138H140.9V148.559ZM165.32 148.559H188.742V125.138H165.32V148.559ZM189.742 148.559H213.162V125.138H189.742V148.559ZM214.162 148.559H238.6V125.138H214.162V148.559ZM239.6 148.559H263.021V125.138H239.6V148.559ZM264.021 148.559H287.441V125.138H264.021V148.559ZM288.441 148.559H311.861V125.138H288.441V148.559ZM312.861 148.559H337.301V125.138H312.861V148.559ZM338.301 148.559H361.721V125.138H338.301V148.559ZM362.721 148.559H386.143V125.138H362.721V148.559ZM387.143 148.559H410.562V125.138H387.143V148.559ZM411.562 148.559H436V125.138H411.562V148.559ZM437 148.559H460.422V125.138H437V148.559ZM461.422 148.559H484.842V125.138H461.422V148.559ZM485.842 148.559H509.262V125.138H485.842V148.559ZM510.262 148.559H534.701V125.138H510.262V148.559ZM535.701 148.559H559.121V125.138H535.701V148.559ZM560.121 148.559H583.541V125.138H560.121V148.559ZM-56.5 124.138H-33.0801V99.7002H-56.5V124.138ZM-32.0801 124.138H-8.6582V99.7002H-32.0801V124.138ZM-7.6582 124.138H16.7793V99.7002H-7.6582V124.138ZM17.7793 124.138H41.1992V99.7002H17.7793V124.138ZM42.1992 124.138H65.6211V99.7002H42.1992V124.138ZM66.6211 124.138H90.041V99.7002H66.6211V124.138ZM91.041 124.138H114.463V99.7002H91.041V124.138ZM115.463 124.138H139.9V99.7002H115.463V124.138ZM140.9 124.138H164.32V99.7002H140.9V124.138ZM165.32 124.138H188.742V99.7002H165.32V124.138ZM189.742 124.138H213.162V99.7002H189.742V124.138ZM214.162 124.138H238.6V99.7002H214.162V124.138ZM239.6 124.138H263.021V99.7002H239.6V124.138ZM264.021 124.138H287.441V99.7002H264.021V124.138ZM288.441 124.138H311.861V99.7002H288.441V124.138ZM312.861 124.138H337.301V99.7002H312.861V124.138ZM338.301 124.138H361.721V99.7002H338.301V124.138ZM362.721 124.138H386.143L386.142 99.7002H362.721V124.138ZM387.143 124.138H410.562V99.7002H387.142L387.143 124.138ZM411.562 124.138H436V99.7002H411.562V124.138ZM437 124.138H460.422V99.7002H437V124.138ZM461.422 124.138H484.842V99.7002H461.422V124.138ZM485.842 124.138H509.262V99.7002H485.842V124.138ZM510.262 124.138H534.701V99.7002H510.262V124.138ZM535.701 124.138H559.121V99.7002H535.701V124.138ZM560.121 124.138H583.541V99.7002H560.121V124.138ZM-56.5 98.7002H-33.0801V75.2793H-56.5V98.7002ZM-32.0801 98.7002H-8.6582V75.2793H-32.0801V98.7002ZM-7.6582 98.7002H16.7793V75.2793H-7.6582V98.7002ZM17.7793 98.7002H41.1992V75.2793H17.7793V98.7002ZM42.1992 98.7002H65.6211V75.2793H42.1992V98.7002ZM66.6211 98.7002H90.041V75.2793H66.6211V98.7002ZM91.041 98.7002H114.463V75.2793H91.041V98.7002ZM115.463 98.7002H139.9V75.2793H115.463V98.7002ZM140.9 98.7002H164.32V75.2793H140.9V98.7002ZM165.32 98.7002H188.742V75.2793H165.32V98.7002ZM189.742 98.7002H213.162V75.2793H189.742V98.7002ZM214.162 98.7002H238.6V75.2793H214.162V98.7002ZM239.6 98.7002H263.021V75.2793H239.6V98.7002ZM264.021 98.7002H287.441V75.2793H264.021V98.7002ZM288.441 98.7002H311.861V75.2793H288.441V98.7002ZM312.861 98.7002H337.301V75.2793H312.861V98.7002ZM338.301 98.7002H361.721V75.2793H338.301V98.7002ZM362.721 98.7002H386.142V75.2793H362.721V98.7002ZM387.142 98.7002H410.562V75.2793H387.142V98.7002ZM411.562 98.7002H436V75.2793H411.562V98.7002ZM437 98.7002H460.422V75.2793H437V98.7002ZM461.422 98.7002H484.842V75.2793H461.422V98.7002ZM485.842 98.7002H509.262V75.2793H485.842V98.7002ZM510.262 98.7002H534.701V75.2793H510.262V98.7002ZM535.701 98.7002H559.121V75.2793H535.701V98.7002ZM560.121 98.7002H583.541V75.2793H560.121V98.7002ZM-56.5 74.2793H-33.0801V50.8584H-56.5V74.2793ZM-32.0801 74.2793H-8.6582V50.8584H-32.0801V74.2793ZM-7.6582 74.2793H16.7793V50.8584H-7.6582V74.2793ZM17.7793 74.2793H41.1992V50.8584H17.7793V74.2793ZM42.1992 74.2793H65.6211V50.8584H42.1992V74.2793ZM66.6211 74.2793H90.041V50.8584H66.6211V74.2793ZM91.041 74.2793H114.463V50.8584H91.041V74.2793ZM115.463 74.2793H139.9V50.8584H115.463V74.2793ZM140.9 74.2793H164.32V50.8584H140.9V74.2793ZM165.32 74.2793H188.742V50.8584H165.32V74.2793ZM189.742 74.2793H213.162V50.8584H189.742V74.2793ZM214.162 74.2793H238.6V50.8584H214.162V74.2793ZM239.6 74.2793H263.021V50.8584H239.6V74.2793ZM264.021 74.2793H287.441V50.8584H264.021V74.2793ZM288.441 74.2793H311.861V50.8584H288.441V74.2793ZM312.861 74.2793H337.301V50.8584H312.861V74.2793ZM338.301 74.2793H361.721V50.8584H338.301V74.2793ZM362.721 74.2793H386.142V50.8584H362.721V74.2793ZM387.142 74.2793H410.562V50.8584H387.142V74.2793ZM411.562 74.2793H436V50.8584H411.562V74.2793ZM437 74.2793H460.422V50.8584H437V74.2793ZM461.422 74.2793H484.842V50.8584H461.422V74.2793ZM485.842 74.2793H509.262V50.8584H485.842V74.2793ZM510.262 74.2793H534.701V50.8584H510.262V74.2793ZM535.701 74.2793H559.121V50.8584H535.701V74.2793ZM560.121 74.2793H583.541V50.8584H560.121V74.2793ZM-56.5 49.8584H-33.0801V26.4375H-56.5V49.8584ZM-32.0801 49.8584H-8.6582V26.4375H-32.0801V49.8584ZM-7.6582 49.8584H16.7793V26.4375H-7.6582V49.8584ZM17.7793 49.8584H41.1992V26.4375H17.7793V49.8584ZM42.1992 49.8584H65.6211V26.4375H42.1992V49.8584ZM66.6211 49.8584H90.041V26.4375H66.6211V49.8584ZM91.041 49.8584H114.463V26.4375H91.041V49.8584ZM115.463 49.8584H139.9V26.4375H115.463V49.8584ZM140.9 49.8584H164.32V26.4375H140.9V49.8584ZM165.32 49.8584H188.742V26.4375H165.32V49.8584ZM189.742 49.8584H213.162V26.4375H189.742V49.8584ZM214.162 49.8584H238.6V26.4375H214.162V49.8584ZM239.6 49.8584H263.021V26.4375H239.6V49.8584ZM264.021 49.8584H287.441V26.4375H264.021V49.8584ZM288.441 49.8584H311.861V26.4375H288.441V49.8584ZM312.861 49.8584H337.301V26.4375H312.861V49.8584ZM338.301 49.8584H361.721V26.4375H338.301V49.8584ZM362.721 49.8584H386.142V26.4375H362.721V49.8584ZM387.142 49.8584H410.562V26.4375H387.142V49.8584ZM411.562 49.8584H436V26.4375H411.562V49.8584ZM437 49.8584H460.422V26.4375H437V49.8584ZM461.422 49.8584H484.842V26.4375H461.422V49.8584ZM485.842 49.8584H509.262V26.4375H485.842V49.8584ZM510.262 49.8584H534.701V26.4375H510.262V49.8584ZM535.701 49.8584H559.121V26.4375H535.701V49.8584ZM560.121 49.8584H583.541V26.4375H560.121V49.8584ZM-56.5 25.4375H-33.0801V1H-56.5V25.4375ZM-32.0801 25.4375H-8.6582V1H-32.0801V25.4375ZM-7.6582 25.4375H16.7793V1H-7.6582V25.4375ZM17.7793 25.4375H41.1992V1H17.7793V25.4375ZM42.1992 25.4375H65.6211V1H42.1992V25.4375ZM66.6211 25.4375H90.041V1H66.6211V25.4375ZM91.041 25.4375H114.463V1H91.041V25.4375ZM115.463 25.4375H139.9V1H115.463V25.4375ZM140.9 25.4375H164.32V1H140.9V25.4375ZM165.32 25.4375H188.742V1H165.32V25.4375ZM189.742 25.4375H213.162V1H189.742V25.4375ZM214.162 25.4375H238.6V1H214.162V25.4375ZM239.6 25.4375H263.021V1H239.6V25.4375ZM264.021 25.4375H287.441V1H264.021V25.4375ZM288.441 25.4375H311.861V1H288.441V25.4375ZM312.861 25.4375H337.301V1H312.861V25.4375ZM338.301 25.4375H361.721V1H338.301V25.4375ZM362.721 25.4375H386.142L386.143 1H362.721V25.4375ZM387.142 25.4375H410.562V1H387.143L387.142 25.4375ZM411.562 25.4375H436V1H411.562V25.4375ZM437 25.4375H460.422V1H437V25.4375ZM461.422 25.4375H484.842V1H461.422V25.4375ZM485.842 25.4375H509.262V1H485.842V25.4375ZM510.262 25.4375H534.701V1H510.262V25.4375ZM535.701 25.4375H559.121V1H535.701V25.4375ZM560.121 25.4375H583.541V1H560.121V25.4375Z" fill="url(#paint0_radial_2411_1693)"/>
</g>
<defs>
<radialGradient id="paint0_radial_2411_1693" cx="0" cy="0" r="1" gradientUnits="userSpaceOnUse" gradientTransform="translate(254.5 298.28) rotate(-90) scale(351 341.792)">
<stop offset="0.365385" stop-color="#FFBC41"/>
<stop offset="0.620192" stop-color="#FFBC41"/>
<stop offset="1"/>
</radialGradient>
<clipPath id="clip0_2411_1693">
<rect width="585" height="569" fill="white" transform="translate(0.5)"/>
</clipPath>
</defs>
</svg>
